solid OpenSCAD_Model
  facet normal 0 0 -1
    outer loop
      vertex -17.5 -17.5 -16.25
      vertex -17.5 -17.495999999999995 -16.25
      vertex -17.495999999999995 -17.495999999999995 -16.25
    endloop
  endfacet
  facet normal -1 0 0
    outer loop
      vertex -17.5 -17.5 -16.25
      vertex -17.5 -17.495999999999995 -12.654
      vertex -17.5 -17.495999999999995 -16.25
    endloop
  endfacet
  facet normal 0 0 -1
    outer loop
      vertex -17.5 17.5 -16.25
      vertex -10 -10 -16.25
      vertex -17.5 -10 -16.25
    endloop
  endfacet
  facet normal 0 0 -1
    outer loop
      vertex -17.5 -17.5 -16.25
      vertex -17.495999999999995 -17.495999999999995 -16.25
      vertex 17.5 -17.5 -16.25
    endloop
  endfacet
  facet normal 0 0 -1
    outer loop
      vertex -17.495999999999995 -17.495999999999995 -16.25
      vertex -17.494800831866897 -17.494800831866897 -16.25
      vertex 17.5 -17.5 -16.25
    endloop
  endfacet
  facet normal 0 -1 0
    outer loop
      vertex -17.5 -17.5 -16.25
      vertex 17.5 -17.5 -16.25
      vertex -12.654 -17.5 -6.879
    endloop
  endfacet
  facet normal 0 0 -1
    outer loop
      vertex 17.5 -10 -16.25
      vertex -17.494800831866897 -17.494800831866897 -16.25
      vertex -10 -10 -16.25
    endloop
  endfacet
  facet normal -1 0 0
    outer loop
      vertex -17.5 -17.5 -16.25
      vertex -17.5 -17.5 16.25
      vertex -17.5 -17.495999999999995 -12.654
    endloop
  endfacet
  facet normal 0 -1 0
    outer loop
      vertex -17.5 -17.5 -16.25
      vertex -12.654 -17.5 -6.879
      vertex -17.5 -17.5 16.25
    endloop
  endfacet
  facet normal -1 0 0
    outer loop
      vertex -17.5 -6.004 3.7460000000000004
      vertex -17.5 -2.996 3.7460000000000004
      vertex -17.5 -10 -16.25
    endloop
  endfacet
  facet normal 0 0 -1
    outer loop
      vertex -17.5 17.5 -16.25
      vertex 17.5 17.5 -16.25
      vertex -10 -10 -16.25
    endloop
  endfacet
  facet normal 0 1 0
    outer loop
      vertex -17.5 17.5 -16.25
      vertex -12.654 17.5 -6.879
      vertex 12.654 17.5 -6.879
    endloop
  endfacet
  facet normal -1 0 0
    outer loop
      vertex -17.5 17.5 -16.25
      vertex -17.5 -10 -16.25
      vertex -17.5 11.5 8.287009084755272
    endloop
  endfacet
  facet normal -1 0 0
    outer loop
      vertex -17.5 -2.996 3.7460000000000004
      vertex -17.5 11.5 8.287009084755272
      vertex -17.5 -10 -16.25
    endloop
  endfacet
  facet normal 0 1 0
    outer loop
      vertex -17.5 17.5 -16.25
      vertex -17.5 17.5 16.25
      vertex -12.654 17.5 -6.879
    endloop
  endfacet
  facet normal -1 0 0
    outer loop
      vertex -17.5 -17.5 16.25
      vertex -17.5 -17.495999999999995 12.654
      vertex -17.5 -17.495999999999995 -12.654
    endloop
  endfacet
  facet normal -1 0 0
    outer loop
      vertex -17.5 -6.004 3.7460000000000004
      vertex -17.5 -10 -16.25
      vertex -17.5 -10 16.25
    endloop
  endfacet
  facet normal 0 -1 0
    outer loop
      vertex -12.654 -17.5 -6.879
      vertex -12.654 -17.5 16.25
      vertex -17.5 -17.5 16.25
    endloop
  endfacet
  facet normal -1 0 0
    outer loop
      vertex -17.5 -17.5 16.25
      vertex -17.5 -17.495999999999995 16.25
      vertex -17.5 -17.495999999999995 12.654
    endloop
  endfacet
  facet normal 0 0 1
    outer loop
      vertex -17.5 -17.5 16.25
      vertex -12.654 -6.004 16.25
      vertex -17.5 -17.495999999999995 16.25
    endloop
  endfacet
  facet normal 0 0 1
    outer loop
      vertex -12.654 -6.004 16.25
      vertex -17.5 -10 16.25
      vertex -17.5 -17.495999999999995 16.25
    endloop
  endfacet
  facet normal 0 0 1
    outer loop
      vertex -17.5 -17.5 16.25
      vertex -12.654 -17.5 16.25
      vertex -12.654 -6.004 16.25
    endloop
  endfacet
  facet normal -1 0 0
    outer loop
      vertex -17.5 -6.004 3.7460000000000004
      vertex -17.5 -10 16.25
      vertex -17.5 -6.004 16.25
    endloop
  endfacet
  facet normal 0 0 1
    outer loop
      vertex -17.5 -6.004 16.25
      vertex -17.5 -10 16.25
      vertex -12.654 -6.004 16.25
    endloop
  endfacet
  facet normal -1 0 0
    outer loop
      vertex -17.5 -2.996 3.7460000000000004
      vertex -17.5 9.8 9.268504542377636
      vertex -17.5 11.5 8.287009084755272
    endloop
  endfacet
  facet normal -1 0 0
    outer loop
      vertex -17.5 17.5 -16.25
      vertex -17.5 11.5 8.287009084755272
      vertex -17.5 13.2 9.268504542377636
    endloop
  endfacet
  facet normal -1 0 0
    outer loop
      vertex -17.5 17.5 -16.25
      vertex -17.5 13.2 9.268504542377636
      vertex -17.5 13.2 11.231495457622364
    endloop
  endfacet
  facet normal -1 0 0
    outer loop
      vertex -17.5 17.5 -16.25
      vertex -17.5 13.2 11.231495457622364
      vertex -17.5 17.5 16.25
    endloop
  endfacet
  facet normal -1 0 0
    outer loop
      vertex -17.5 -2.996 3.7460000000000004
      vertex -17.5 -2.996 16.25
      vertex -17.5 9.8 9.268504542377636
    endloop
  endfacet
  facet normal -1 0 0
    outer loop
      vertex -17.5 -2.996 16.25
      vertex -17.5 9.8 11.231495457622364
      vertex -17.5 9.8 9.268504542377636
    endloop
  endfacet
  facet normal -1 0 0
    outer loop
      vertex -17.5 -2.996 16.25
      vertex -17.5 11.5 12.212990915244728
      vertex -17.5 9.8 11.231495457622364
    endloop
  endfacet
  facet normal 0 0 1
    outer loop
      vertex -17.5 -2.996 16.25
      vertex -12.654 -2.996 16.25
      vertex -12.654 17.5 16.25
    endloop
  endfacet
  facet normal 0 1 0
    outer loop
      vertex -12.654 17.5 -6.879
      vertex -17.5 17.5 16.25
      vertex -12.654 17.5 16.25
    endloop
  endfacet
  facet normal -1 0 0
    outer loop
      vertex -17.5 -2.996 16.25
      vertex -17.5 17.5 16.25
      vertex -17.5 11.5 12.212990915244728
    endloop
  endfacet
  facet normal 0 0 1
    outer loop
      vertex -17.5 -2.996 16.25
      vertex -12.654 17.5 16.25
      vertex -17.5 17.5 16.25
    endloop
  endfacet
  facet normal -1 0 0
    outer loop
      vertex -17.5 11.5 12.212990915244728
      vertex -17.5 17.5 16.25
      vertex -17.5 13.2 11.231495457622364
    endloop
  endfacet
  facet normal 0 0 -1
    outer loop
      vertex 17.5 -17.5 -16.25
      vertex -17.494800831866897 -17.494800831866897 -16.25
      vertex 17.5 -17.495999999999995 -16.25
    endloop
  endfacet
  facet normal 0 -1 0
    outer loop
      vertex -12.654 -17.5 -6.879
      vertex 17.5 -17.5 -16.25
      vertex 12.654 -17.5 -6.879
    endloop
  endfacet
  facet normal 0 0 -1
    outer loop
      vertex 17.5 17.5 -16.25
      vertex 17.5 -10 -16.25
      vertex -10 -10 -16.25
    endloop
  endfacet
  facet normal 1 0 0
    outer loop
      vertex 17.5 -17.5 -16.25
      vertex 17.5 -17.495999999999995 -16.25
      vertex 17.5 -17.495999999999995 -12.654
    endloop
  endfacet
  facet normal 1 0 0
    outer loop
      vertex 17.5 -17.5 -16.25
      vertex 17.5 -17.495999999999995 -12.654
      vertex 17.5 -17.5 16.25
    endloop
  endfacet
  facet normal 0 -1 0
    outer loop
      vertex 17.5 -17.5 -16.25
      vertex 17.5 -17.5 16.25
      vertex 12.654 -17.5 -6.879
    endloop
  endfacet
  facet normal 0 1 0
    outer loop
      vertex -17.5 17.5 -16.25
      vertex 12.654 17.5 -6.879
      vertex 17.5 17.5 -16.25
    endloop
  endfacet
  facet normal 1 0 0
    outer loop
      vertex 17.5 -6.004 3.7460000000000004
      vertex 17.5 -10 -16.25
      vertex 17.5 17.5 -16.25
    endloop
  endfacet
  facet normal 1 0 0
    outer loop
      vertex 17.5 -6.004 3.7460000000000004
      vertex 17.5 17.5 -16.25
      vertex 17.5 -2.996 3.7460000000000004
    endloop
  endfacet
  facet normal 1 0 0
    outer loop
      vertex 17.5 -2.996 3.7460000000000004
      vertex 17.5 17.5 -16.25
      vertex 17.5 11.5 7.3
    endloop
  endfacet
  facet normal 0 1 0
    outer loop
      vertex 17.5 17.5 -16.25
      vertex 12.654 17.5 -6.879
      vertex 17.5 17.5 16.25
    endloop
  endfacet
  facet normal 1 0 0
    outer loop
      vertex 17.5 17.5 -16.25
      vertex 17.5 13.233966494262797 7.863399866593905
      vertex 17.5 11.5 7.3
    endloop
  endfacet
  facet normal 1 0 0
    outer loop
      vertex 17.5 -17.5 16.25
      vertex 17.5 -17.495999999999995 -12.654
      vertex 17.5 -17.495999999999995 12.654
    endloop
  endfacet
  facet normal 1 0 0
    outer loop
      vertex 17.5 -6.004 3.7460000000000004
      vertex 17.5 -6.004 16.25
      vertex 17.5 -10 -16.25
    endloop
  endfacet
  facet normal 1 0 0
    outer loop
      vertex 17.5 -6.004 16.25
      vertex 17.5 -10 16.25
      vertex 17.5 -10 -16.25
    endloop
  endfacet
  facet normal 0 -1 0
    outer loop
      vertex 12.654 -17.5 -6.879
      vertex 17.5 -17.5 16.25
      vertex 12.654 -17.5 16.25
    endloop
  endfacet
  facet normal 0 0 1
    outer loop
      vertex 12.654 -17.5 16.25
      vertex 12.655906442376029 -17.495477411977955 16.25
      vertex 12.654 -17.495999999999995 16.25
    endloop
  endfacet
  facet normal 0 0 1
    outer loop
      vertex 12.654 -17.5 16.25
      vertex 17.5 -17.5 16.25
      vertex 12.655906442376029 -17.495477411977955 16.25
    endloop
  endfacet
  facet normal 0 0 1
    outer loop
      vertex 12.655906442376029 -17.495477411977955 16.25
      vertex 17.5 -6.004 16.25
      vertex 12.654 -17.495999999999995 16.25
    endloop
  endfacet
  facet normal 0 0 1
    outer loop
      vertex 12.654 -10 16.25
      vertex 12.654 -17.495999999999995 16.25
      vertex 17.5 -6.004 16.25
    endloop
  endfacet
  facet normal 0 0 1
    outer loop
      vertex 17.5 -17.5 16.25
      vertex 17.5 -17.495999999999995 16.25
      vertex 12.655906442376029 -17.495477411977955 16.25
    endloop
  endfacet
  facet normal 0 0 1
    outer loop
      vertex 12.655906442376029 -17.495477411977955 16.25
      vertex 17.5 -16.16762963504717 16.25
      vertex 17.5 -10 16.25
    endloop
  endfacet
  facet normal 1 0 0
    outer loop
      vertex 17.5 -17.5 16.25
      vertex 17.5 -17.495999999999995 12.654
      vertex 17.5 -17.495999999999995 16.25
    endloop
  endfacet
  facet normal 0 0 1
    outer loop
      vertex 17.5 -6.004 16.25
      vertex 12.655906442376029 -17.495477411977955 16.25
      vertex 17.5 -10 16.25
    endloop
  endfacet
  facet normal 0 0 1
    outer loop
      vertex 12.654 -6.004 16.25
      vertex 12.654 -10 16.25
      vertex 17.5 -6.004 16.25
    endloop
  endfacet
  facet normal 1 0 0
    outer loop
      vertex 17.5 -2.996 3.7460000000000004
      vertex 17.5 11.5 7.3
      vertex 17.5 9.766033505737203 7.863399866593905
    endloop
  endfacet
  facet normal 1 0 0
    outer loop
      vertex 17.5 -2.996 3.7460000000000004
      vertex 17.5 9.766033505737203 7.863399866593905
      vertex 17.5 8.694383276929297 9.338399866593905
    endloop
  endfacet
  facet normal 1 0 0
    outer loop
      vertex 17.5 -2.996 3.7460000000000004
      vertex 17.5 8.694383276929297 9.338399866593905
      vertex 17.5 8.694383276929297 11.161600133406095
    endloop
  endfacet
  facet normal 1 0 0
    outer loop
      vertex 17.5 17.5 -16.25
      vertex 17.5 14.305616723070703 9.338399866593905
      vertex 17.5 13.233966494262797 7.863399866593905
    endloop
  endfacet
  facet normal 1 0 0
    outer loop
      vertex 17.5 17.5 -16.25
      vertex 17.5 14.305616723070703 11.161600133406095
      vertex 17.5 14.305616723070703 9.338399866593905
    endloop
  endfacet
  facet normal 1 0 0
    outer loop
      vertex 17.5 17.5 -16.25
      vertex 17.5 17.5 16.25
      vertex 17.5 14.305616723070703 11.161600133406095
    endloop
  endfacet
  facet normal 1 0 0
    outer loop
      vertex 17.5 -2.996 3.7460000000000004
      vertex 17.5 8.694383276929297 11.161600133406095
      vertex 17.5 -2.996 16.25
    endloop
  endfacet
  facet normal 0 0 1
    outer loop
      vertex 12.654 -2.996 16.25
      vertex 17.5 -2.996 16.25
      vertex 12.654 17.5 16.25
    endloop
  endfacet
  facet normal 1 0 0
    outer loop
      vertex 17.5 -2.996 16.25
      vertex 17.5 8.694383276929297 11.161600133406095
      vertex 17.5 9.766033505737203 12.636600133406095
    endloop
  endfacet
  facet normal 1 0 0
    outer loop
      vertex 17.5 -2.996 16.25
      vertex 17.5 9.766033505737203 12.636600133406095
      vertex 17.5 11.5 13.2
    endloop
  endfacet
  facet normal 0 1 0
    outer loop
      vertex 12.654 17.5 -6.879
      vertex 12.654 17.5 16.25
      vertex 17.5 17.5 16.25
    endloop
  endfacet
  facet normal 0 0 1
    outer loop
      vertex 17.5 -2.996 16.25
      vertex 17.5 17.5 16.25
      vertex 12.654 17.5 16.25
    endloop
  endfacet
  facet normal 1 0 0
    outer loop
      vertex 17.5 -2.996 16.25
      vertex 17.5 11.5 13.2
      vertex 17.5 17.5 16.25
    endloop
  endfacet
  facet normal 1 0 0
    outer loop
      vertex 17.5 11.5 13.2
      vertex 17.5 13.233966494262797 12.636600133406095
      vertex 17.5 17.5 16.25
    endloop
  endfacet
  facet normal 1 0 0
    outer loop
      vertex 17.5 14.305616723070703 11.161600133406095
      vertex 17.5 17.5 16.25
      vertex 17.5 13.233966494262797 12.636600133406095
    endloop
  endfacet
  facet normal 1 0 0
    outer loop
      vertex 14.754000000000001 9.766033505737203 7.863399866593905
      vertex 14.754000000000001 11.5 7.3
      vertex 14.754000000000001 13.233966494262797 7.863399866593905
    endloop
  endfacet
  facet normal 1 0 0
    outer loop
      vertex 14.754000000000001 9.766033505737203 7.863399866593905
      vertex 14.754000000000001 13.233966494262797 7.863399866593905
      vertex 14.754000000000001 11.5 8.287009084755272
    endloop
  endfacet
  facet normal 0 0.3090169943749475 0.9510565162951535
    outer loop
      vertex 14.754000000000001 9.766033505737203 7.863399866593905
      vertex 17.5 9.766033505737203 7.863399866593905
      vertex 14.754000000000001 11.5 7.3
    endloop
  endfacet
  facet normal 0 -0.3090169943749475 0.9510565162951535
    outer loop
      vertex 14.754000000000001 11.5 7.3
      vertex 17.5 11.5 7.3
      vertex 14.754000000000001 13.233966494262797 7.863399866593905
    endloop
  endfacet
  facet normal 0 0.3090169943749475 0.9510565162951535
    outer loop
      vertex 14.754000000000001 11.5 7.3
      vertex 17.5 9.766033505737203 7.863399866593905
      vertex 17.5 11.5 7.3
    endloop
  endfacet
  facet normal 0 -0.3090169943749475 0.9510565162951535
    outer loop
      vertex 17.5 11.5 7.3
      vertex 17.5 13.233966494262797 7.863399866593905
      vertex 14.754000000000001 13.233966494262797 7.863399866593905
    endloop
  endfacet
  facet normal 1 0 0
    outer loop
      vertex 14.754000000000001 8.694383276929297 9.338399866593905
      vertex 14.754000000000001 9.766033505737203 7.863399866593905
      vertex 14.754000000000001 11.5 8.287009084755272
    endloop
  endfacet
  facet normal 1 0 0
    outer loop
      vertex 14.754000000000001 8.694383276929297 9.338399866593905
      vertex 14.754000000000001 11.5 8.287009084755272
      vertex 14.754000000000001 9.8 9.268504542377636
    endloop
  endfacet
  facet normal 1 0 0
    outer loop
      vertex 14.754000000000001 8.694383276929297 9.338399866593905
      vertex 14.754000000000001 9.8 9.268504542377636
      vertex 14.754000000000001 8.694383276929297 11.161600133406095
    endloop
  endfacet
  facet normal 1 0 0
    outer loop
      vertex 14.754000000000001 13.233966494262797 7.863399866593905
      vertex 14.754000000000001 13.2 9.268504542377636
      vertex 14.754000000000001 11.5 8.287009084755272
    endloop
  endfacet
  facet normal 1 0 0
    outer loop
      vertex 14.754000000000001 8.694383276929297 11.161600133406095
      vertex 14.754000000000001 9.8 9.268504542377636
      vertex 14.754000000000001 9.8 11.231495457622364
    endloop
  endfacet
  facet normal 1 0 0
    outer loop
      vertex 14.754000000000001 8.694383276929297 11.161600133406095
      vertex 14.754000000000001 9.8 11.231495457622364
      vertex 14.754000000000001 9.766033505737203 12.636600133406095
    endloop
  endfacet
  facet normal 1 0 0
    outer loop
      vertex 14.754000000000001 9.8 11.231495457622364
      vertex 14.754000000000001 11.5 12.212990915244728
      vertex 14.754000000000001 9.766033505737203 12.636600133406095
    endloop
  endfacet
  facet normal 1 0 0
    outer loop
      vertex 14.754000000000001 13.233966494262797 7.863399866593905
      vertex 14.754000000000001 14.305616723070703 9.338399866593905
      vertex 14.754000000000001 13.2 9.268504542377636
    endloop
  endfacet
  facet normal 1 0 0
    outer loop
      vertex 14.754000000000001 13.2 9.268504542377636
      vertex 14.754000000000001 14.305616723070703 9.338399866593905
      vertex 14.754000000000001 13.2 11.231495457622364
    endloop
  endfacet
  facet normal 1 0 0
    outer loop
      vertex 14.754000000000001 14.305616723070703 9.338399866593905
      vertex 14.754000000000001 14.305616723070703 11.161600133406095
      vertex 14.754000000000001 13.2 11.231495457622364
    endloop
  endfacet
  facet normal 1 0 0
    outer loop
      vertex 14.754000000000001 11.5 12.212990915244728
      vertex 14.754000000000001 13.2 11.231495457622364
      vertex 14.754000000000001 14.305616723070703 11.161600133406095
    endloop
  endfacet
  facet normal 1 0 0
    outer loop
      vertex 14.754000000000001 11.5 12.212990915244728
      vertex 14.754000000000001 14.305616723070703 11.161600133406095
      vertex 14.754000000000001 13.233966494262797 12.636600133406095
    endloop
  endfacet
  facet normal 0 0.8090169943749478 0.5877852522924727
    outer loop
      vertex 14.754000000000001 8.694383276929297 9.338399866593905
      vertex 17.5 8.694383276929297 9.338399866593905
      vertex 14.754000000000001 9.766033505737203 7.863399866593905
    endloop
  endfacet
  facet normal 0 0.8090169943749478 0.5877852522924727
    outer loop
      vertex 17.5 8.694383276929297 9.338399866593905
      vertex 17.5 9.766033505737203 7.863399866593905
      vertex 14.754000000000001 9.766033505737203 7.863399866593905
    endloop
  endfacet
  facet normal 0 1 0
    outer loop
      vertex 14.754000000000001 8.694383276929297 9.338399866593905
      vertex 17.5 8.694383276929297 11.161600133406095
      vertex 17.5 8.694383276929297 9.338399866593905
    endloop
  endfacet
  facet normal 0 1 0
    outer loop
      vertex 14.754000000000001 8.694383276929297 9.338399866593905
      vertex 14.754000000000001 8.694383276929297 11.161600133406095
      vertex 17.5 8.694383276929297 11.161600133406095
    endloop
  endfacet
  facet normal 0 0.8090169943749478 -0.5877852522924727
    outer loop
      vertex 14.754000000000001 8.694383276929297 11.161600133406095
      vertex 14.754000000000001 9.766033505737203 12.636600133406095
      vertex 17.5 9.766033505737203 12.636600133406095
    endloop
  endfacet
  facet normal 0 0.8090169943749478 -0.5877852522924727
    outer loop
      vertex 14.754000000000001 8.694383276929297 11.161600133406095
      vertex 17.5 9.766033505737203 12.636600133406095
      vertex 17.5 8.694383276929297 11.161600133406095
    endloop
  endfacet
  facet normal 0 -0.8090169943749478 0.5877852522924727
    outer loop
      vertex 14.754000000000001 13.233966494262797 7.863399866593905
      vertex 17.5 13.233966494262797 7.863399866593905
      vertex 14.754000000000001 14.305616723070703 9.338399866593905
    endloop
  endfacet
  facet normal 0 -0.8090169943749478 0.5877852522924727
    outer loop
      vertex 17.5 13.233966494262797 7.863399866593905
      vertex 17.5 14.305616723070703 9.338399866593905
      vertex 14.754000000000001 14.305616723070703 9.338399866593905
    endloop
  endfacet
  facet normal 0 -1 0
    outer loop
      vertex 14.754000000000001 14.305616723070703 9.338399866593905
      vertex 17.5 14.305616723070703 9.338399866593905
      vertex 14.754000000000001 14.305616723070703 11.161600133406095
    endloop
  endfacet
  facet normal 0 -1 0
    outer loop
      vertex 14.754000000000001 14.305616723070703 11.161600133406095
      vertex 17.5 14.305616723070703 9.338399866593905
      vertex 17.5 14.305616723070703 11.161600133406095
    endloop
  endfacet
  facet normal 0 -0.8090169943749478 -0.5877852522924727
    outer loop
      vertex 14.754000000000001 14.305616723070703 11.161600133406095
      vertex 17.5 14.305616723070703 11.161600133406095
      vertex 14.754000000000001 13.233966494262797 12.636600133406095
    endloop
  endfacet
  facet normal 0 -0.8090169943749478 -0.5877852522924727
    outer loop
      vertex 17.5 14.305616723070703 11.161600133406095
      vertex 17.5 13.233966494262797 12.636600133406095
      vertex 14.754000000000001 13.233966494262797 12.636600133406095
    endloop
  endfacet
  facet normal 1 0 0
    outer loop
      vertex 14.754000000000001 9.766033505737203 12.636600133406095
      vertex 14.754000000000001 11.5 12.212990915244728
      vertex 14.754000000000001 13.233966494262797 12.636600133406095
    endloop
  endfacet
  facet normal 1 0 0
    outer loop
      vertex 14.754000000000001 9.766033505737203 12.636600133406095
      vertex 14.754000000000001 13.233966494262797 12.636600133406095
      vertex 14.754000000000001 11.5 13.2
    endloop
  endfacet
  facet normal 0 0.30901699437494706 -0.9510565162951538
    outer loop
      vertex 14.754000000000001 9.766033505737203 12.636600133406095
      vertex 17.5 11.5 13.2
      vertex 17.5 9.766033505737203 12.636600133406095
    endloop
  endfacet
  facet normal 0 0.30901699437494706 -0.9510565162951538
    outer loop
      vertex 14.754000000000001 9.766033505737203 12.636600133406095
      vertex 14.754000000000001 11.5 13.2
      vertex 17.5 11.5 13.2
    endloop
  endfacet
  facet normal 0 -0.30901699437494706 -0.9510565162951538
    outer loop
      vertex 14.754000000000001 11.5 13.2
      vertex 14.754000000000001 13.233966494262797 12.636600133406095
      vertex 17.5 13.233966494262797 12.636600133406095
    endloop
  endfacet
  facet normal 0 -0.30901699437494706 -0.9510565162951538
    outer loop
      vertex 14.754000000000001 11.5 13.2
      vertex 17.5 13.233966494262797 12.636600133406095
      vertex 17.5 11.5 13.2
    endloop
  endfacet
  facet normal 0.9510565162951535 0.30901699437494734 0
    outer loop
      vertex -32.3866001334061 -49.38396649426279 14.754000000000001
      vertex -32.95 -47.65 14.754000000000001
      vertex -32.95 -47.65 16.25
    endloop
  endfacet
  facet normal 0.9510565162951535 0.30901699437494734 0
    outer loop
      vertex -32.3866001334061 -49.38396649426279 14.754000000000001
      vertex -32.95 -47.65 16.25
      vertex -32.3866001334061 -49.38396649426279 16.25
    endloop
  endfacet
  facet normal 0 0 1
    outer loop
      vertex -32.3866001334061 -49.38396649426279 14.754000000000001
      vertex -32.3866001334061 -45.916033505737204 14.754000000000001
      vertex -32.95 -47.65 14.754000000000001
    endloop
  endfacet
  facet normal 0.9510565162951535 -0.30901699437494734 0
    outer loop
      vertex -32.95 -47.65 14.754000000000001
      vertex -32.3866001334061 -45.916033505737204 16.25
      vertex -32.95 -47.65 16.25
    endloop
  endfacet
  facet normal 0.9510565162951535 -0.30901699437494734 0
    outer loop
      vertex -32.95 -47.65 14.754000000000001
      vertex -32.3866001334061 -45.916033505737204 14.754000000000001
      vertex -32.3866001334061 -45.916033505737204 16.25
    endloop
  endfacet
  facet normal 0 0 1
    outer loop
      vertex -32.3866001334061 -49.38396649426279 14.754000000000001
      vertex -30.911600133406093 -50.455616723070705 14.754000000000001
      vertex -30.981495457622366 -49.35 14.754000000000001
    endloop
  endfacet
  facet normal 0 0 1
    outer loop
      vertex -32.3866001334061 -49.38396649426279 14.754000000000001
      vertex -30.981495457622366 -49.35 14.754000000000001
      vertex -31.962990915244728 -47.65 14.754000000000001
    endloop
  endfacet
  facet normal 0 0 1
    outer loop
      vertex -30.911600133406093 -50.455616723070705 14.754000000000001
      vertex -29.018504542377634 -49.35 14.754000000000001
      vertex -30.981495457622366 -49.35 14.754000000000001
    endloop
  endfacet
  facet normal 0.5877852522924732 0.8090169943749473 0
    outer loop
      vertex -32.3866001334061 -49.38396649426279 14.754000000000001
      vertex -32.3866001334061 -49.38396649426279 16.25
      vertex -30.911600133406093 -50.455616723070705 14.754000000000001
    endloop
  endfacet
  facet normal 0.5877852522924732 0.8090169943749473 0
    outer loop
      vertex -30.911600133406093 -50.455616723070705 14.754000000000001
      vertex -32.3866001334061 -49.38396649426279 16.25
      vertex -30.911600133406093 -50.455616723070705 16.25
    endloop
  endfacet
  facet normal 0 1 0
    outer loop
      vertex -30.911600133406093 -50.455616723070705 14.754000000000001
      vertex -30.911600133406093 -50.455616723070705 16.25
      vertex -29.088399866593907 -50.455616723070705 14.754000000000001
    endloop
  endfacet
  facet normal 0 0 1
    outer loop
      vertex -32.3866001334061 -49.38396649426279 14.754000000000001
      vertex -31.962990915244728 -47.65 14.754000000000001
      vertex -32.3866001334061 -45.916033505737204 14.754000000000001
    endloop
  endfacet
  facet normal 0 0 1
    outer loop
      vertex -31.962990915244728 -47.65 14.754000000000001
      vertex -30.911600133406093 -44.84438327692929 14.754000000000001
      vertex -32.3866001334061 -45.916033505737204 14.754000000000001
    endloop
  endfacet
  facet normal 0 0 1
    outer loop
      vertex -31.962990915244728 -47.65 14.754000000000001
      vertex -30.981495457622366 -45.949999999999996 14.754000000000001
      vertex -30.911600133406093 -44.84438327692929 14.754000000000001
    endloop
  endfacet
  facet normal 0 0 1
    outer loop
      vertex -30.981495457622366 -45.949999999999996 14.754000000000001
      vertex -29.088399866593907 -44.84438327692929 14.754000000000001
      vertex -30.911600133406093 -44.84438327692929 14.754000000000001
    endloop
  endfacet
  facet normal 0.5877852522924732 -0.8090169943749473 0
    outer loop
      vertex -32.3866001334061 -45.916033505737204 14.754000000000001
      vertex -30.911600133406093 -44.84438327692929 14.754000000000001
      vertex -30.911600133406093 -44.84438327692929 16.25
    endloop
  endfacet
  facet normal 0.5877852522924732 -0.8090169943749473 0
    outer loop
      vertex -32.3866001334061 -45.916033505737204 14.754000000000001
      vertex -30.911600133406093 -44.84438327692929 16.25
      vertex -32.3866001334061 -45.916033505737204 16.25
    endloop
  endfacet
  facet normal 0 -1 0
    outer loop
      vertex -30.911600133406093 -44.84438327692929 14.754000000000001
      vertex -29.088399866593907 -44.84438327692929 16.25
      vertex -30.911600133406093 -44.84438327692929 16.25
    endloop
  endfacet
  facet normal 0 0 1
    outer loop
      vertex -30.911600133406093 -50.455616723070705 14.754000000000001
      vertex -29.088399866593907 -50.455616723070705 14.754000000000001
      vertex -29.018504542377634 -49.35 14.754000000000001
    endloop
  endfacet
  facet normal 0 0 1
    outer loop
      vertex -29.088399866593907 -50.455616723070705 14.754000000000001
      vertex -28.037009084755272 -47.65 14.754000000000001
      vertex -29.018504542377634 -49.35 14.754000000000001
    endloop
  endfacet
  facet normal 0 0 1
    outer loop
      vertex -29.088399866593907 -50.455616723070705 14.754000000000001
      vertex -27.613399866593905 -49.38396649426279 14.754000000000001
      vertex -28.037009084755272 -47.65 14.754000000000001
    endloop
  endfacet
  facet normal 0 1 0
    outer loop
      vertex -30.911600133406093 -50.455616723070705 16.25
      vertex -29.088399866593907 -50.455616723070705 16.25
      vertex -29.088399866593907 -50.455616723070705 14.754000000000001
    endloop
  endfacet
  facet normal -0.5877852522924741 0.8090169943749468 0
    outer loop
      vertex -29.088399866593907 -50.455616723070705 14.754000000000001
      vertex -29.088399866593907 -50.455616723070705 16.25
      vertex -27.613399866593905 -49.38396649426279 14.754000000000001
    endloop
  endfacet
  facet normal -0.5877852522924741 0.8090169943749468 0
    outer loop
      vertex -27.613399866593905 -49.38396649426279 14.754000000000001
      vertex -29.088399866593907 -50.455616723070705 16.25
      vertex -27.613399866593905 -49.38396649426279 16.25
    endloop
  endfacet
  facet normal 0 0 1
    outer loop
      vertex -27.613399866593905 -49.38396649426279 14.754000000000001
      vertex -27.613399866593905 -45.916033505737204 14.754000000000001
      vertex -28.037009084755272 -47.65 14.754000000000001
    endloop
  endfacet
  facet normal 0 0 1
    outer loop
      vertex -28.037009084755272 -47.65 14.754000000000001
      vertex -27.613399866593905 -45.916033505737204 14.754000000000001
      vertex -29.018504542377634 -45.949999999999996 14.754000000000001
    endloop
  endfacet
  facet normal -0.9510565162951535 0.30901699437494734 0
    outer loop
      vertex -27.613399866593905 -49.38396649426279 14.754000000000001
      vertex -27.613399866593905 -49.38396649426279 16.25
      vertex -27.05 -47.65 14.754000000000001
    endloop
  endfacet
  facet normal -0.9510565162951535 0.30901699437494734 0
    outer loop
      vertex -27.613399866593905 -49.38396649426279 16.25
      vertex -27.05 -47.65 16.25
      vertex -27.05 -47.65 14.754000000000001
    endloop
  endfacet
  facet normal 0 0 1
    outer loop
      vertex -27.613399866593905 -49.38396649426279 14.754000000000001
      vertex -27.05 -47.65 14.754000000000001
      vertex -27.613399866593905 -45.916033505737204 14.754000000000001
    endloop
  endfacet
  facet normal -0.9510565162951535 -0.30901699437494734 0
    outer loop
      vertex -27.05 -47.65 14.754000000000001
      vertex -27.05 -47.65 16.25
      vertex -27.613399866593905 -45.916033505737204 14.754000000000001
    endloop
  endfacet
  facet normal -0.9510565162951535 -0.30901699437494734 0
    outer loop
      vertex -27.05 -47.65 16.25
      vertex -27.613399866593905 -45.916033505737204 16.25
      vertex -27.613399866593905 -45.916033505737204 14.754000000000001
    endloop
  endfacet
  facet normal 0 0 1
    outer loop
      vertex -30.981495457622366 -45.949999999999996 14.754000000000001
      vertex -29.018504542377634 -45.949999999999996 14.754000000000001
      vertex -29.088399866593907 -44.84438327692929 14.754000000000001
    endloop
  endfacet
  facet normal 0 0 1
    outer loop
      vertex -29.018504542377634 -45.949999999999996 14.754000000000001
      vertex -27.613399866593905 -45.916033505737204 14.754000000000001
      vertex -29.088399866593907 -44.84438327692929 14.754000000000001
    endloop
  endfacet
  facet normal 0 -1 0
    outer loop
      vertex -30.911600133406093 -44.84438327692929 14.754000000000001
      vertex -29.088399866593907 -44.84438327692929 14.754000000000001
      vertex -29.088399866593907 -44.84438327692929 16.25
    endloop
  endfacet
  facet normal -0.5877852522924741 -0.8090169943749468 0
    outer loop
      vertex -27.613399866593905 -45.916033505737204 14.754000000000001
      vertex -27.613399866593905 -45.916033505737204 16.25
      vertex -29.088399866593907 -44.84438327692929 14.754000000000001
    endloop
  endfacet
  facet normal -0.5877852522924741 -0.8090169943749468 0
    outer loop
      vertex -27.613399866593905 -45.916033505737204 16.25
      vertex -29.088399866593907 -44.84438327692929 16.25
      vertex -29.088399866593907 -44.84438327692929 14.754000000000001
    endloop
  endfacet
  facet normal 0.9510565162951535 0.30901699437494734 0
    outer loop
      vertex 27.613399866593905 -49.38396649426279 14.754000000000001
      vertex 27.05 -47.65 14.754000000000001
      vertex 27.05 -47.65 16.25
    endloop
  endfacet
  facet normal 0.9510565162951535 0.30901699437494734 0
    outer loop
      vertex 27.613399866593905 -49.38396649426279 14.754000000000001
      vertex 27.05 -47.65 16.25
      vertex 27.613399866593905 -49.38396649426279 16.25
    endloop
  endfacet
  facet normal 0 0 1
    outer loop
      vertex 27.613399866593905 -49.38396649426279 14.754000000000001
      vertex 27.613399866593905 -45.916033505737204 14.754000000000001
      vertex 27.05 -47.65 14.754000000000001
    endloop
  endfacet
  facet normal 0.9510565162951535 -0.30901699437494734 0
    outer loop
      vertex 27.05 -47.65 14.754000000000001
      vertex 27.613399866593905 -45.916033505737204 16.25
      vertex 27.05 -47.65 16.25
    endloop
  endfacet
  facet normal 0.9510565162951535 -0.30901699437494734 0
    outer loop
      vertex 27.05 -47.65 14.754000000000001
      vertex 27.613399866593905 -45.916033505737204 14.754000000000001
      vertex 27.613399866593905 -45.916033505737204 16.25
    endloop
  endfacet
  facet normal 0 0 1
    outer loop
      vertex 27.613399866593905 -49.38396649426279 14.754000000000001
      vertex 29.088399866593907 -50.455616723070705 14.754000000000001
      vertex 29.018504542377634 -49.35 14.754000000000001
    endloop
  endfacet
  facet normal 0 0 1
    outer loop
      vertex 27.613399866593905 -49.38396649426279 14.754000000000001
      vertex 29.018504542377634 -49.35 14.754000000000001
      vertex 28.037009084755272 -47.65 14.754000000000001
    endloop
  endfacet
  facet normal 0 0 1
    outer loop
      vertex 29.088399866593907 -50.455616723070705 14.754000000000001
      vertex 30.981495457622366 -49.35 14.754000000000001
      vertex 29.018504542377634 -49.35 14.754000000000001
    endloop
  endfacet
  facet normal 0.5877852522924741 0.8090169943749468 0
    outer loop
      vertex 27.613399866593905 -49.38396649426279 14.754000000000001
      vertex 27.613399866593905 -49.38396649426279 16.25
      vertex 29.088399866593907 -50.455616723070705 14.754000000000001
    endloop
  endfacet
  facet normal 0.5877852522924741 0.8090169943749468 0
    outer loop
      vertex 29.088399866593907 -50.455616723070705 14.754000000000001
      vertex 27.613399866593905 -49.38396649426279 16.25
      vertex 29.088399866593907 -50.455616723070705 16.25
    endloop
  endfacet
  facet normal 0 1 0
    outer loop
      vertex 29.088399866593907 -50.455616723070705 14.754000000000001
      vertex 29.088399866593907 -50.455616723070705 16.25
      vertex 30.911600133406093 -50.455616723070705 14.754000000000001
    endloop
  endfacet
  facet normal 0 0 1
    outer loop
      vertex 27.613399866593905 -49.38396649426279 14.754000000000001
      vertex 28.037009084755272 -47.65 14.754000000000001
      vertex 27.613399866593905 -45.916033505737204 14.754000000000001
    endloop
  endfacet
  facet normal 0 0 1
    outer loop
      vertex 28.037009084755272 -47.65 14.754000000000001
      vertex 29.088399866593907 -44.84438327692929 14.754000000000001
      vertex 27.613399866593905 -45.916033505737204 14.754000000000001
    endloop
  endfacet
  facet normal 0 0 1
    outer loop
      vertex 28.037009084755272 -47.65 14.754000000000001
      vertex 29.018504542377634 -45.949999999999996 14.754000000000001
      vertex 29.088399866593907 -44.84438327692929 14.754000000000001
    endloop
  endfacet
  facet normal 0 0 1
    outer loop
      vertex 29.018504542377634 -45.949999999999996 14.754000000000001
      vertex 30.911600133406093 -44.84438327692929 14.754000000000001
      vertex 29.088399866593907 -44.84438327692929 14.754000000000001
    endloop
  endfacet
  facet normal 0.5877852522924741 -0.8090169943749468 0
    outer loop
      vertex 27.613399866593905 -45.916033505737204 14.754000000000001
      vertex 29.088399866593907 -44.84438327692929 14.754000000000001
      vertex 29.088399866593907 -44.84438327692929 16.25
    endloop
  endfacet
  facet normal 0.5877852522924741 -0.8090169943749468 0
    outer loop
      vertex 27.613399866593905 -45.916033505737204 14.754000000000001
      vertex 29.088399866593907 -44.84438327692929 16.25
      vertex 27.613399866593905 -45.916033505737204 16.25
    endloop
  endfacet
  facet normal 0 -1 0
    outer loop
      vertex 29.088399866593907 -44.84438327692929 14.754000000000001
      vertex 30.911600133406093 -44.84438327692929 16.25
      vertex 29.088399866593907 -44.84438327692929 16.25
    endloop
  endfacet
  facet normal 0 0 1
    outer loop
      vertex 29.088399866593907 -50.455616723070705 14.754000000000001
      vertex 30.911600133406093 -50.455616723070705 14.754000000000001
      vertex 30.981495457622366 -49.35 14.754000000000001
    endloop
  endfacet
  facet normal 0 0 1
    outer loop
      vertex 30.911600133406093 -50.455616723070705 14.754000000000001
      vertex 31.962990915244728 -47.65 14.754000000000001
      vertex 30.981495457622366 -49.35 14.754000000000001
    endloop
  endfacet
  facet normal 0 0 1
    outer loop
      vertex 30.911600133406093 -50.455616723070705 14.754000000000001
      vertex 32.3866001334061 -49.38396649426279 14.754000000000001
      vertex 31.962990915244728 -47.65 14.754000000000001
    endloop
  endfacet
  facet normal 0 1 0
    outer loop
      vertex 29.088399866593907 -50.455616723070705 16.25
      vertex 30.911600133406093 -50.455616723070705 16.25
      vertex 30.911600133406093 -50.455616723070705 14.754000000000001
    endloop
  endfacet
  facet normal -0.5877852522924732 0.8090169943749473 0
    outer loop
      vertex 30.911600133406093 -50.455616723070705 14.754000000000001
      vertex 30.911600133406093 -50.455616723070705 16.25
      vertex 32.3866001334061 -49.38396649426279 14.754000000000001
    endloop
  endfacet
  facet normal -0.5877852522924732 0.8090169943749473 0
    outer loop
      vertex 32.3866001334061 -49.38396649426279 14.754000000000001
      vertex 30.911600133406093 -50.455616723070705 16.25
      vertex 32.3866001334061 -49.38396649426279 16.25
    endloop
  endfacet
  facet normal 0 0 1
    outer loop
      vertex 32.3866001334061 -49.38396649426279 14.754000000000001
      vertex 32.3866001334061 -45.916033505737204 14.754000000000001
      vertex 31.962990915244728 -47.65 14.754000000000001
    endloop
  endfacet
  facet normal 0 0 1
    outer loop
      vertex 31.962990915244728 -47.65 14.754000000000001
      vertex 32.3866001334061 -45.916033505737204 14.754000000000001
      vertex 30.981495457622366 -45.949999999999996 14.754000000000001
    endloop
  endfacet
  facet normal -0.9510565162951535 0.30901699437494734 0
    outer loop
      vertex 32.3866001334061 -49.38396649426279 14.754000000000001
      vertex 32.3866001334061 -49.38396649426279 16.25
      vertex 32.95 -47.65 14.754000000000001
    endloop
  endfacet
  facet normal -0.9510565162951535 0.30901699437494734 0
    outer loop
      vertex 32.3866001334061 -49.38396649426279 16.25
      vertex 32.95 -47.65 16.25
      vertex 32.95 -47.65 14.754000000000001
    endloop
  endfacet
  facet normal 0 0 1
    outer loop
      vertex 32.3866001334061 -49.38396649426279 14.754000000000001
      vertex 32.95 -47.65 14.754000000000001
      vertex 32.3866001334061 -45.916033505737204 14.754000000000001
    endloop
  endfacet
  facet normal -0.9510565162951535 -0.30901699437494734 0
    outer loop
      vertex 32.95 -47.65 14.754000000000001
      vertex 32.95 -47.65 16.25
      vertex 32.3866001334061 -45.916033505737204 14.754000000000001
    endloop
  endfacet
  facet normal -0.9510565162951535 -0.30901699437494734 0
    outer loop
      vertex 32.95 -47.65 16.25
      vertex 32.3866001334061 -45.916033505737204 16.25
      vertex 32.3866001334061 -45.916033505737204 14.754000000000001
    endloop
  endfacet
  facet normal 0 0 1
    outer loop
      vertex 29.018504542377634 -45.949999999999996 14.754000000000001
      vertex 30.981495457622366 -45.949999999999996 14.754000000000001
      vertex 30.911600133406093 -44.84438327692929 14.754000000000001
    endloop
  endfacet
  facet normal 0 0 1
    outer loop
      vertex 30.981495457622366 -45.949999999999996 14.754000000000001
      vertex 32.3866001334061 -45.916033505737204 14.754000000000001
      vertex 30.911600133406093 -44.84438327692929 14.754000000000001
    endloop
  endfacet
  facet normal 0 -1 0
    outer loop
      vertex 29.088399866593907 -44.84438327692929 14.754000000000001
      vertex 30.911600133406093 -44.84438327692929 14.754000000000001
      vertex 30.911600133406093 -44.84438327692929 16.25
    endloop
  endfacet
  facet normal -0.5877852522924732 -0.8090169943749473 0
    outer loop
      vertex 32.3866001334061 -45.916033505737204 14.754000000000001
      vertex 32.3866001334061 -45.916033505737204 16.25
      vertex 30.911600133406093 -44.84438327692929 14.754000000000001
    endloop
  endfacet
  facet normal -0.5877852522924732 -0.8090169943749473 0
    outer loop
      vertex 32.3866001334061 -45.916033505737204 16.25
      vertex 30.911600133406093 -44.84438327692929 16.25
      vertex 30.911600133406093 -44.84438327692929 14.754000000000001
    endloop
  endfacet
  facet normal 0 0.5000000000000001 0.8660254037844386
    outer loop
      vertex -17.5 9.8 9.268504542377636
      vertex -12.654 9.8 9.268504542377636
      vertex -17.5 11.5 8.287009084755272
    endloop
  endfacet
  facet normal 0 -0.5000000000000001 0.8660254037844386
    outer loop
      vertex -17.5 11.5 8.287009084755272
      vertex -12.654 11.5 8.287009084755272
      vertex -17.5 13.2 9.268504542377636
    endloop
  endfacet
  facet normal 0 1 0
    outer loop
      vertex -17.5 9.8 9.268504542377636
      vertex -17.5 9.8 11.231495457622364
      vertex -12.654 9.8 11.231495457622364
    endloop
  endfacet
  facet normal 0 0.5000000000000001 -0.8660254037844386
    outer loop
      vertex -17.5 9.8 11.231495457622364
      vertex -17.5 11.5 12.212990915244728
      vertex -12.654 11.5 12.212990915244728
    endloop
  endfacet
  facet normal 0 -0.5000000000000001 -0.8660254037844386
    outer loop
      vertex -17.5 11.5 12.212990915244728
      vertex -17.5 13.2 11.231495457622364
      vertex -12.654 13.2 11.231495457622364
    endloop
  endfacet
  facet normal 0 -1 0
    outer loop
      vertex -17.5 13.2 9.268504542377636
      vertex -12.654 13.2 9.268504542377636
      vertex -17.5 13.2 11.231495457622364
    endloop
  endfacet
  facet normal 0 1 0
    outer loop
      vertex -17.5 9.8 9.268504542377636
      vertex -12.654 9.8 11.231495457622364
      vertex -12.654 9.8 9.268504542377636
    endloop
  endfacet
  facet normal 0 0.5000000000000001 0.8660254037844386
    outer loop
      vertex -17.5 11.5 8.287009084755272
      vertex -12.654 9.8 9.268504542377636
      vertex -12.654 11.5 8.287009084755272
    endloop
  endfacet
  facet normal 0 -0.5000000000000001 0.8660254037844386
    outer loop
      vertex -17.5 13.2 9.268504542377636
      vertex -12.654 11.5 8.287009084755272
      vertex -12.654 13.2 9.268504542377636
    endloop
  endfacet
  facet normal 0 0.5000000000000001 -0.8660254037844386
    outer loop
      vertex -17.5 9.8 11.231495457622364
      vertex -12.654 11.5 12.212990915244728
      vertex -12.654 9.8 11.231495457622364
    endloop
  endfacet
  facet normal 0 -0.5000000000000001 -0.8660254037844386
    outer loop
      vertex -17.5 11.5 12.212990915244728
      vertex -12.654 13.2 11.231495457622364
      vertex -12.654 11.5 12.212990915244728
    endloop
  endfacet
  facet normal 0 -1 0
    outer loop
      vertex -17.5 13.2 11.231495457622364
      vertex -12.654 13.2 9.268504542377636
      vertex -12.654 13.2 11.231495457622364
    endloop
  endfacet
  facet normal 0 0.5000000000000002 0.8660254037844386
    outer loop
      vertex 12.654 9.8 9.268504542377636
      vertex 14.754000000000001 9.8 9.268504542377636
      vertex 14.754000000000001 11.5 8.287009084755272
    endloop
  endfacet
  facet normal 0 1 0
    outer loop
      vertex 12.654 9.8 9.268504542377636
      vertex 12.654 9.8 11.231495457622364
      vertex 14.754000000000001 9.8 9.268504542377636
    endloop
  endfacet
  facet normal 0 0.5000000000000002 0.8660254037844386
    outer loop
      vertex 12.654 9.8 9.268504542377636
      vertex 14.754000000000001 11.5 8.287009084755272
      vertex 12.654 11.5 8.287009084755272
    endloop
  endfacet
  facet normal 0 -0.5000000000000002 0.8660254037844386
    outer loop
      vertex 12.654 11.5 8.287009084755272
      vertex 14.754000000000001 13.2 9.268504542377636
      vertex 12.654 13.2 9.268504542377636
    endloop
  endfacet
  facet normal 0 -0.5000000000000002 0.8660254037844386
    outer loop
      vertex 12.654 11.5 8.287009084755272
      vertex 14.754000000000001 11.5 8.287009084755272
      vertex 14.754000000000001 13.2 9.268504542377636
    endloop
  endfacet
  facet normal 0 1 0
    outer loop
      vertex 12.654 9.8 11.231495457622364
      vertex 14.754000000000001 9.8 11.231495457622364
      vertex 14.754000000000001 9.8 9.268504542377636
    endloop
  endfacet
  facet normal 0 0.5000000000000002 -0.8660254037844386
    outer loop
      vertex 12.654 9.8 11.231495457622364
      vertex 12.654 11.5 12.212990915244728
      vertex 14.754000000000001 9.8 11.231495457622364
    endloop
  endfacet
  facet normal 0 -0.5000000000000002 -0.8660254037844386
    outer loop
      vertex 12.654 11.5 12.212990915244728
      vertex 12.654 13.2 11.231495457622364
      vertex 14.754000000000001 11.5 12.212990915244728
    endloop
  endfacet
  facet normal 0 0.5000000000000002 -0.8660254037844386
    outer loop
      vertex 12.654 11.5 12.212990915244728
      vertex 14.754000000000001 11.5 12.212990915244728
      vertex 14.754000000000001 9.8 11.231495457622364
    endloop
  endfacet
  facet normal 0 -0.5000000000000002 -0.8660254037844386
    outer loop
      vertex 12.654 13.2 11.231495457622364
      vertex 14.754000000000001 13.2 11.231495457622364
      vertex 14.754000000000001 11.5 12.212990915244728
    endloop
  endfacet
  facet normal 0 -1 0
    outer loop
      vertex 12.654 13.2 9.268504542377636
      vertex 14.754000000000001 13.2 9.268504542377636
      vertex 14.754000000000001 13.2 11.231495457622364
    endloop
  endfacet
  facet normal 0 -1 0
    outer loop
      vertex 12.654 13.2 9.268504542377636
      vertex 14.754000000000001 13.2 11.231495457622364
      vertex 12.654 13.2 11.231495457622364
    endloop
  endfacet
  facet normal 0.8660254037844394 0.49999999999999867 0
    outer loop
      vertex -30.981495457622366 -49.35 -16.25
      vertex -31.962990915244728 -47.65 -16.25
      vertex -31.962990915244728 -47.65 -12.654
    endloop
  endfacet
  facet normal 0 1 0
    outer loop
      vertex -30.981495457622366 -49.35 -16.25
      vertex -30.981495457622366 -49.35 -12.654
      vertex -29.018504542377634 -49.35 -16.25
    endloop
  endfacet
  facet normal 0.8660254037844394 -0.49999999999999867 0
    outer loop
      vertex -31.962990915244728 -47.65 -16.25
      vertex -30.981495457622366 -45.949999999999996 -16.25
      vertex -30.981495457622366 -45.949999999999996 -12.654
    endloop
  endfacet
  facet normal 0.8660254037844394 0.49999999999999867 0
    outer loop
      vertex -30.981495457622366 -49.35 -16.25
      vertex -31.962990915244728 -47.65 -12.654
      vertex -30.981495457622366 -49.35 -12.654
    endloop
  endfacet
  facet normal 0.8660254037844394 -0.49999999999999867 0
    outer loop
      vertex -31.962990915244728 -47.65 -16.25
      vertex -30.981495457622366 -45.949999999999996 -12.654
      vertex -31.962990915244728 -47.65 -12.654
    endloop
  endfacet
  facet normal 0 -1 0
    outer loop
      vertex -30.981495457622366 -45.949999999999996 -16.25
      vertex -29.018504542377634 -45.949999999999996 -12.654
      vertex -30.981495457622366 -45.949999999999996 -12.654
    endloop
  endfacet
  facet normal -0.8660254037844394 0.49999999999999867 0
    outer loop
      vertex -29.018504542377634 -49.35 -16.25
      vertex -29.018504542377634 -49.35 -12.654
      vertex -28.037009084755272 -47.65 -16.25
    endloop
  endfacet
  facet normal 0 -1 0
    outer loop
      vertex -30.981495457622366 -45.949999999999996 -16.25
      vertex -29.018504542377634 -45.949999999999996 -16.25
      vertex -29.018504542377634 -45.949999999999996 -12.654
    endloop
  endfacet
  facet normal -0.8660254037844394 -0.49999999999999867 0
    outer loop
      vertex -28.037009084755272 -47.65 -16.25
      vertex -28.037009084755272 -47.65 -12.654
      vertex -29.018504542377634 -45.949999999999996 -16.25
    endloop
  endfacet
  facet normal 0 1 0
    outer loop
      vertex -30.981495457622366 -49.35 -12.654
      vertex -29.018504542377634 -49.35 -12.654
      vertex -29.018504542377634 -49.35 -16.25
    endloop
  endfacet
  facet normal -0.8660254037844394 0.49999999999999867 0
    outer loop
      vertex -28.037009084755272 -47.65 -16.25
      vertex -29.018504542377634 -49.35 -12.654
      vertex -28.037009084755272 -47.65 -12.654
    endloop
  endfacet
  facet normal -0.8660254037844394 -0.49999999999999867 0
    outer loop
      vertex -28.037009084755272 -47.65 -12.654
      vertex -29.018504542377634 -45.949999999999996 -12.654
      vertex -29.018504542377634 -45.949999999999996 -16.25
    endloop
  endfacet
  facet normal 0.8660254037844393 0.4999999999999986 0
    outer loop
      vertex -30.981495457622366 -49.35 12.654
      vertex -31.962990915244728 -47.65 12.654
      vertex -31.962990915244728 -47.65 14.754000000000001
    endloop
  endfacet
  facet normal 0.8660254037844393 0.4999999999999986 0
    outer loop
      vertex -30.981495457622366 -49.35 12.654
      vertex -31.962990915244728 -47.65 14.754000000000001
      vertex -30.981495457622366 -49.35 14.754000000000001
    endloop
  endfacet
  facet normal 0 1 0
    outer loop
      vertex -30.981495457622366 -49.35 12.654
      vertex -30.981495457622366 -49.35 14.754000000000001
      vertex -29.018504542377634 -49.35 12.654
    endloop
  endfacet
  facet normal 0.8660254037844393 -0.4999999999999986 0
    outer loop
      vertex -31.962990915244728 -47.65 12.654
      vertex -30.981495457622366 -45.949999999999996 14.754000000000001
      vertex -31.962990915244728 -47.65 14.754000000000001
    endloop
  endfacet
  facet normal 0.8660254037844393 -0.4999999999999986 0
    outer loop
      vertex -31.962990915244728 -47.65 12.654
      vertex -30.981495457622366 -45.949999999999996 12.654
      vertex -30.981495457622366 -45.949999999999996 14.754000000000001
    endloop
  endfacet
  facet normal 0 -1 0
    outer loop
      vertex -30.981495457622366 -45.949999999999996 12.654
      vertex -29.018504542377634 -45.949999999999996 14.754000000000001
      vertex -30.981495457622366 -45.949999999999996 14.754000000000001
    endloop
  endfacet
  facet normal 0 1 0
    outer loop
      vertex -30.981495457622366 -49.35 14.754000000000001
      vertex -29.018504542377634 -49.35 14.754000000000001
      vertex -29.018504542377634 -49.35 12.654
    endloop
  endfacet
  facet normal -0.8660254037844393 0.4999999999999986 0
    outer loop
      vertex -29.018504542377634 -49.35 12.654
      vertex -29.018504542377634 -49.35 14.754000000000001
      vertex -28.037009084755272 -47.65 12.654
    endloop
  endfacet
  facet normal -0.8660254037844393 0.4999999999999986 0
    outer loop
      vertex -28.037009084755272 -47.65 12.654
      vertex -29.018504542377634 -49.35 14.754000000000001
      vertex -28.037009084755272 -47.65 14.754000000000001
    endloop
  endfacet
  facet normal 0 -1 0
    outer loop
      vertex -30.981495457622366 -45.949999999999996 12.654
      vertex -29.018504542377634 -45.949999999999996 12.654
      vertex -29.018504542377634 -45.949999999999996 14.754000000000001
    endloop
  endfacet
  facet normal -0.8660254037844393 -0.4999999999999986 0
    outer loop
      vertex -28.037009084755272 -47.65 12.654
      vertex -28.037009084755272 -47.65 14.754000000000001
      vertex -29.018504542377634 -45.949999999999996 12.654
    endloop
  endfacet
  facet normal -0.8660254037844393 -0.4999999999999986 0
    outer loop
      vertex -28.037009084755272 -47.65 14.754000000000001
      vertex -29.018504542377634 -45.949999999999996 14.754000000000001
      vertex -29.018504542377634 -45.949999999999996 12.654
    endloop
  endfacet
  facet normal 0.8660254037844394 0.49999999999999867 0
    outer loop
      vertex 29.018504542377634 -49.35 -16.25
      vertex 28.037009084755272 -47.65 -16.25
      vertex 28.037009084755272 -47.65 -12.654
    endloop
  endfacet
  facet normal 0 1 0
    outer loop
      vertex 29.018504542377634 -49.35 -16.25
      vertex 29.018504542377634 -49.35 -12.654
      vertex 30.981495457622366 -49.35 -16.25
    endloop
  endfacet
  facet normal 0.8660254037844394 -0.49999999999999867 0
    outer loop
      vertex 28.037009084755272 -47.65 -16.25
      vertex 29.018504542377634 -45.949999999999996 -16.25
      vertex 29.018504542377634 -45.949999999999996 -12.654
    endloop
  endfacet
  facet normal 0.8660254037844394 0.49999999999999867 0
    outer loop
      vertex 29.018504542377634 -49.35 -16.25
      vertex 28.037009084755272 -47.65 -12.654
      vertex 29.018504542377634 -49.35 -12.654
    endloop
  endfacet
  facet normal 0.8660254037844394 -0.49999999999999867 0
    outer loop
      vertex 28.037009084755272 -47.65 -16.25
      vertex 29.018504542377634 -45.949999999999996 -12.654
      vertex 28.037009084755272 -47.65 -12.654
    endloop
  endfacet
  facet normal 0 -1 0
    outer loop
      vertex 29.018504542377634 -45.949999999999996 -16.25
      vertex 30.981495457622366 -45.949999999999996 -12.654
      vertex 29.018504542377634 -45.949999999999996 -12.654
    endloop
  endfacet
  facet normal -0.8660254037844394 0.49999999999999867 0
    outer loop
      vertex 30.981495457622366 -49.35 -16.25
      vertex 30.981495457622366 -49.35 -12.654
      vertex 31.962990915244728 -47.65 -16.25
    endloop
  endfacet
  facet normal 0 -1 0
    outer loop
      vertex 29.018504542377634 -45.949999999999996 -16.25
      vertex 30.981495457622366 -45.949999999999996 -16.25
      vertex 30.981495457622366 -45.949999999999996 -12.654
    endloop
  endfacet
  facet normal -0.8660254037844394 -0.49999999999999867 0
    outer loop
      vertex 31.962990915244728 -47.65 -16.25
      vertex 31.962990915244728 -47.65 -12.654
      vertex 30.981495457622366 -45.949999999999996 -16.25
    endloop
  endfacet
  facet normal 0 1 0
    outer loop
      vertex 29.018504542377634 -49.35 -12.654
      vertex 30.981495457622366 -49.35 -12.654
      vertex 30.981495457622366 -49.35 -16.25
    endloop
  endfacet
  facet normal -0.8660254037844394 0.49999999999999867 0
    outer loop
      vertex 31.962990915244728 -47.65 -16.25
      vertex 30.981495457622366 -49.35 -12.654
      vertex 31.962990915244728 -47.65 -12.654
    endloop
  endfacet
  facet normal -0.8660254037844394 -0.49999999999999867 0
    outer loop
      vertex 31.962990915244728 -47.65 -12.654
      vertex 30.981495457622366 -45.949999999999996 -12.654
      vertex 30.981495457622366 -45.949999999999996 -16.25
    endloop
  endfacet
  facet normal 0.8660254037844393 0.4999999999999986 0
    outer loop
      vertex 29.018504542377634 -49.35 12.654
      vertex 28.037009084755272 -47.65 12.654
      vertex 28.037009084755272 -47.65 14.754000000000001
    endloop
  endfacet
  facet normal 0.8660254037844393 0.4999999999999986 0
    outer loop
      vertex 29.018504542377634 -49.35 12.654
      vertex 28.037009084755272 -47.65 14.754000000000001
      vertex 29.018504542377634 -49.35 14.754000000000001
    endloop
  endfacet
  facet normal 0 1 0
    outer loop
      vertex 29.018504542377634 -49.35 12.654
      vertex 29.018504542377634 -49.35 14.754000000000001
      vertex 30.981495457622366 -49.35 12.654
    endloop
  endfacet
  facet normal 0.8660254037844393 -0.4999999999999986 0
    outer loop
      vertex 28.037009084755272 -47.65 12.654
      vertex 29.018504542377634 -45.949999999999996 14.754000000000001
      vertex 28.037009084755272 -47.65 14.754000000000001
    endloop
  endfacet
  facet normal 0.8660254037844393 -0.4999999999999986 0
    outer loop
      vertex 28.037009084755272 -47.65 12.654
      vertex 29.018504542377634 -45.949999999999996 12.654
      vertex 29.018504542377634 -45.949999999999996 14.754000000000001
    endloop
  endfacet
  facet normal 0 -1 0
    outer loop
      vertex 29.018504542377634 -45.949999999999996 12.654
      vertex 30.981495457622366 -45.949999999999996 14.754000000000001
      vertex 29.018504542377634 -45.949999999999996 14.754000000000001
    endloop
  endfacet
  facet normal 0 1 0
    outer loop
      vertex 29.018504542377634 -49.35 14.754000000000001
      vertex 30.981495457622366 -49.35 14.754000000000001
      vertex 30.981495457622366 -49.35 12.654
    endloop
  endfacet
  facet normal -0.8660254037844393 0.4999999999999986 0
    outer loop
      vertex 30.981495457622366 -49.35 12.654
      vertex 30.981495457622366 -49.35 14.754000000000001
      vertex 31.962990915244728 -47.65 12.654
    endloop
  endfacet
  facet normal -0.8660254037844393 0.4999999999999986 0
    outer loop
      vertex 31.962990915244728 -47.65 12.654
      vertex 30.981495457622366 -49.35 14.754000000000001
      vertex 31.962990915244728 -47.65 14.754000000000001
    endloop
  endfacet
  facet normal 0 -1 0
    outer loop
      vertex 29.018504542377634 -45.949999999999996 12.654
      vertex 30.981495457622366 -45.949999999999996 12.654
      vertex 30.981495457622366 -45.949999999999996 14.754000000000001
    endloop
  endfacet
  facet normal -0.8660254037844393 -0.4999999999999986 0
    outer loop
      vertex 31.962990915244728 -47.65 12.654
      vertex 31.962990915244728 -47.65 14.754000000000001
      vertex 30.981495457622366 -45.949999999999996 12.654
    endloop
  endfacet
  facet normal -0.8660254037844393 -0.4999999999999986 0
    outer loop
      vertex 31.962990915244728 -47.65 14.754000000000001
      vertex 30.981495457622366 -45.949999999999996 14.754000000000001
      vertex 30.981495457622366 -45.949999999999996 12.654
    endloop
  endfacet
  facet normal 0 0 1
    outer loop
      vertex -17.5 -6.004 3.7460000000000004
      vertex -12.654 -6.004 3.7460000000000004
      vertex -17.5 -2.996 3.7460000000000004
    endloop
  endfacet
  facet normal 0 0 1
    outer loop
      vertex -17.5 -2.996 3.7460000000000004
      vertex -12.654 -6.004 3.7460000000000004
      vertex -12.654 -2.996 3.7460000000000004
    endloop
  endfacet
  facet normal 0 -1 0
    outer loop
      vertex -17.5 -2.996 3.7460000000000004
      vertex -12.654 -2.996 3.7460000000000004
      vertex -17.5 -2.996 16.25
    endloop
  endfacet
  facet normal 0 1 0
    outer loop
      vertex -17.5 -6.004 3.7460000000000004
      vertex -12.654 -6.004 16.25
      vertex -12.654 -6.004 3.7460000000000004
    endloop
  endfacet
  facet normal 0 1 0
    outer loop
      vertex -17.5 -6.004 3.7460000000000004
      vertex -17.5 -6.004 16.25
      vertex -12.654 -6.004 16.25
    endloop
  endfacet
  facet normal 0 -1 0
    outer loop
      vertex -12.654 -2.996 3.7460000000000004
      vertex -12.654 -2.996 16.25
      vertex -17.5 -2.996 16.25
    endloop
  endfacet
  facet normal 0 0 1
    outer loop
      vertex 12.654 -6.004 3.7460000000000004
      vertex 17.5 -6.004 3.7460000000000004
      vertex 12.654 -2.996 3.7460000000000004
    endloop
  endfacet
  facet normal 0 0 1
    outer loop
      vertex 12.654 -2.996 3.7460000000000004
      vertex 17.5 -6.004 3.7460000000000004
      vertex 17.5 -2.996 3.7460000000000004
    endloop
  endfacet
  facet normal 0 -1 0
    outer loop
      vertex 12.654 -2.996 3.7460000000000004
      vertex 17.5 -2.996 3.7460000000000004
      vertex 12.654 -2.996 16.25
    endloop
  endfacet
  facet normal 0 1 0
    outer loop
      vertex 12.654 -6.004 3.7460000000000004
      vertex 17.5 -6.004 16.25
      vertex 17.5 -6.004 3.7460000000000004
    endloop
  endfacet
  facet normal 0 1 0
    outer loop
      vertex 12.654 -6.004 3.7460000000000004
      vertex 12.654 -6.004 16.25
      vertex 17.5 -6.004 16.25
    endloop
  endfacet
  facet normal 0 -1 0
    outer loop
      vertex 17.5 -2.996 3.7460000000000004
      vertex 17.5 -2.996 16.25
      vertex 12.654 -2.996 16.25
    endloop
  endfacet
  facet normal 1 0 0
    outer loop
      vertex -12.654 -17.5 -6.879
      vertex -12.654 -17.495999999999995 -6.879
      vertex -12.654 -17.495999999999995 -6.878981364692556
    endloop
  endfacet
  facet normal 1 0 0
    outer loop
      vertex -12.654 -17.5 -6.879
      vertex -12.654 -17.495999999999995 -6.878981364692556
      vertex -12.654 -10 -6.840330040427734
    endloop
  endfacet
  facet normal 1 0 0
    outer loop
      vertex -12.654 -10.047672178770199 -6.878981364692556
      vertex -12.654 -10 -6.840330040427734
      vertex -12.654 -17.495999999999995 -6.878981364692556
    endloop
  endfacet
  facet normal 1 0 0
    outer loop
      vertex -12.654 -17.5 -6.879
      vertex -12.654 -10 -6.840330040427734
      vertex -12.654 -2.996 3.7460000000000004
    endloop
  endfacet
  facet normal 1 0 0
    outer loop
      vertex -12.654 -2.996 3.7460000000000004
      vertex -12.654 -10 -6.840330040427734
      vertex -12.654 -10 -6.879
    endloop
  endfacet
  facet normal 0 0 1
    outer loop
      vertex -12.654 -17.5 -6.879
      vertex 12.654 17.5 -6.879
      vertex -12.654 -17.495999999999995 -6.879
    endloop
  endfacet
  facet normal 0 0 1
    outer loop
      vertex 12.654 17.5 -6.879
      vertex -12.654 -10 -6.879
      vertex -12.654 -17.495999999999995 -6.879
    endloop
  endfacet
  facet normal 1 0 0
    outer loop
      vertex -12.654 -2.996 3.7460000000000004
      vertex -12.654 -10 -6.879
      vertex -12.654 17.5 -6.879
    endloop
  endfacet
  facet normal 0 0 1
    outer loop
      vertex -12.654 17.5 -6.879
      vertex -12.654 -10 -6.879
      vertex 12.654 17.5 -6.879
    endloop
  endfacet
  facet normal 1 0 0
    outer loop
      vertex -12.654 -17.5 -6.879
      vertex -12.654 -6.004 3.7460000000000004
      vertex -12.654 -17.5 16.25
    endloop
  endfacet
  facet normal 1 0 0
    outer loop
      vertex -12.654 -17.5 -6.879
      vertex -12.654 -2.996 3.7460000000000004
      vertex -12.654 -6.004 3.7460000000000004
    endloop
  endfacet
  facet normal 1 0 0
    outer loop
      vertex -12.654 -17.5 16.25
      vertex -12.654 -6.004 3.7460000000000004
      vertex -12.654 -6.004 16.25
    endloop
  endfacet
  facet normal 1 0 0
    outer loop
      vertex -12.654 -2.996 3.7460000000000004
      vertex -12.654 17.5 -6.879
      vertex -12.654 9.8 9.268504542377636
    endloop
  endfacet
  facet normal 1 0 0
    outer loop
      vertex -12.654 17.5 -6.879
      vertex -12.654 11.5 8.287009084755272
      vertex -12.654 9.8 9.268504542377636
    endloop
  endfacet
  facet normal 1 0 0
    outer loop
      vertex -12.654 17.5 -6.879
      vertex -12.654 13.2 9.268504542377636
      vertex -12.654 11.5 8.287009084755272
    endloop
  endfacet
  facet normal 1 0 0
    outer loop
      vertex -12.654 17.5 -6.879
      vertex -12.654 13.2 11.231495457622364
      vertex -12.654 13.2 9.268504542377636
    endloop
  endfacet
  facet normal 1 0 0
    outer loop
      vertex -12.654 17.5 -6.879
      vertex -12.654 17.5 16.25
      vertex -12.654 13.2 11.231495457622364
    endloop
  endfacet
  facet normal 1 0 0
    outer loop
      vertex -12.654 -2.996 3.7460000000000004
      vertex -12.654 9.8 9.268504542377636
      vertex -12.654 -2.996 16.25
    endloop
  endfacet
  facet normal 1 0 0
    outer loop
      vertex -12.654 -2.996 16.25
      vertex -12.654 9.8 9.268504542377636
      vertex -12.654 9.8 11.231495457622364
    endloop
  endfacet
  facet normal 1 0 0
    outer loop
      vertex -12.654 -2.996 16.25
      vertex -12.654 9.8 11.231495457622364
      vertex -12.654 17.5 16.25
    endloop
  endfacet
  facet normal 1 0 0
    outer loop
      vertex -12.654 9.8 11.231495457622364
      vertex -12.654 11.5 12.212990915244728
      vertex -12.654 17.5 16.25
    endloop
  endfacet
  facet normal 1 0 0
    outer loop
      vertex -12.654 11.5 12.212990915244728
      vertex -12.654 13.2 11.231495457622364
      vertex -12.654 17.5 16.25
    endloop
  endfacet
  facet normal 0 0 1
    outer loop
      vertex -12.654 -17.5 -6.879
      vertex 12.654 -17.5 -6.879
      vertex 12.654 -17.495999999999995 -6.879
    endloop
  endfacet
  facet normal 0 0 1
    outer loop
      vertex -12.654 -17.5 -6.879
      vertex 12.654 -17.495999999999995 -6.879
      vertex 12.654 -10 -6.879
    endloop
  endfacet
  facet normal 0 0 1
    outer loop
      vertex -12.654 -17.5 -6.879
      vertex 12.654 -10 -6.879
      vertex 12.654 17.5 -6.879
    endloop
  endfacet
  facet normal -1 0 0
    outer loop
      vertex 12.654 -17.5 -6.879
      vertex 12.654 -17.495999999999995 -6.878981364692556
      vertex 12.654 -17.495999999999995 -6.879
    endloop
  endfacet
  facet normal -1 0 0
    outer loop
      vertex 12.654 -17.5 -6.879
      vertex 12.654 -17.44324047402796 -6.840330040427734
      vertex 12.654 -17.495999999999995 -6.878981364692556
    endloop
  endfacet
  facet normal -1 0 0
    outer loop
      vertex 12.654 -17.5 -6.879
      vertex 12.654 -2.996 3.7460000000000004
      vertex 12.654 -17.44324047402796 -6.840330040427734
    endloop
  endfacet
  facet normal -1 0 0
    outer loop
      vertex 12.654 -2.996 3.7460000000000004
      vertex 12.654 -10 -6.840330040427734
      vertex 12.654 -17.44324047402796 -6.840330040427734
    endloop
  endfacet
  facet normal -1 0 0
    outer loop
      vertex 12.654 -2.996 3.7460000000000004
      vertex 12.654 -10 -6.879
      vertex 12.654 -10 -6.840330040427734
    endloop
  endfacet
  facet normal -1 0 0
    outer loop
      vertex 12.654 -2.996 3.7460000000000004
      vertex 12.654 17.5 -6.879
      vertex 12.654 -10 -6.879
    endloop
  endfacet
  facet normal -1 0 0
    outer loop
      vertex 12.654 -17.5 -6.879
      vertex 12.654 -15.204538104799303 13.753265871817195
      vertex 12.654 -6.004 3.7460000000000004
    endloop
  endfacet
  facet normal -1 0 0
    outer loop
      vertex 12.654 -17.5 -6.879
      vertex 12.654 -17.495999999999995 16.24564926931106
      vertex 12.654 -15.204538104799303 13.753265871817195
    endloop
  endfacet
  facet normal -1 0 0
    outer loop
      vertex 12.654 -17.5 -6.879
      vertex 12.654 -6.004 3.7460000000000004
      vertex 12.654 -2.996 3.7460000000000004
    endloop
  endfacet
  facet normal -1 0 0
    outer loop
      vertex 12.654 -6.004 3.7460000000000004
      vertex 12.654 -11.94671652565843 10.210919678807214
      vertex 12.654 -10 10.210919678807214
    endloop
  endfacet
  facet normal -1 0 0
    outer loop
      vertex 12.654 -17.5 16.25
      vertex 12.654 -17.495999999999995 16.24564926931106
      vertex 12.654 -17.5 -6.879
    endloop
  endfacet
  facet normal -1 0 0
    outer loop
      vertex 12.654 -6.004 3.7460000000000004
      vertex 12.654 -15.204538104799303 13.753265871817195
      vertex 12.654 -11.94671652565843 10.210919678807214
    endloop
  endfacet
  facet normal -1 0 0
    outer loop
      vertex 12.654 -17.5 16.25
      vertex 12.654 -17.495999999999995 16.25
      vertex 12.654 -17.495999999999995 16.24564926931106
    endloop
  endfacet
  facet normal -1 0 0
    outer loop
      vertex 12.654 -6.004 3.7460000000000004
      vertex 12.654 -10 10.210919678807214
      vertex 12.654 -6.004 16.25
    endloop
  endfacet
  facet normal -1 0 0
    outer loop
      vertex 12.654 -6.004 16.25
      vertex 12.654 -10 10.210919678807214
      vertex 12.654 -10 16.25
    endloop
  endfacet
  facet normal -1 0 0
    outer loop
      vertex 12.654 -2.996 3.7460000000000004
      vertex 12.654 9.8 9.268504542377636
      vertex 12.654 17.5 -6.879
    endloop
  endfacet
  facet normal -1 0 0
    outer loop
      vertex 12.654 -2.996 3.7460000000000004
      vertex 12.654 9.8 11.231495457622364
      vertex 12.654 9.8 9.268504542377636
    endloop
  endfacet
  facet normal -1 0 0
    outer loop
      vertex 12.654 17.5 -6.879
      vertex 12.654 9.8 9.268504542377636
      vertex 12.654 11.5 8.287009084755272
    endloop
  endfacet
  facet normal -1 0 0
    outer loop
      vertex 12.654 17.5 -6.879
      vertex 12.654 11.5 8.287009084755272
      vertex 12.654 13.2 9.268504542377636
    endloop
  endfacet
  facet normal -1 0 0
    outer loop
      vertex 12.654 17.5 -6.879
      vertex 12.654 13.2 9.268504542377636
      vertex 12.654 17.5 16.25
    endloop
  endfacet
  facet normal -1 0 0
    outer loop
      vertex 12.654 -2.996 3.7460000000000004
      vertex 12.654 -2.996 16.25
      vertex 12.654 9.8 11.231495457622364
    endloop
  endfacet
  facet normal -1 0 0
    outer loop
      vertex 12.654 -2.996 16.25
      vertex 12.654 17.5 16.25
      vertex 12.654 9.8 11.231495457622364
    endloop
  endfacet
  facet normal -1 0 0
    outer loop
      vertex 12.654 9.8 11.231495457622364
      vertex 12.654 17.5 16.25
      vertex 12.654 11.5 12.212990915244728
    endloop
  endfacet
  facet normal -1 0 0
    outer loop
      vertex 12.654 13.2 9.268504542377636
      vertex 12.654 13.2 11.231495457622364
      vertex 12.654 17.5 16.25
    endloop
  endfacet
  facet normal -1 0 0
    outer loop
      vertex 12.654 11.5 12.212990915244728
      vertex 12.654 17.5 16.25
      vertex 12.654 13.2 11.231495457622364
    endloop
  endfacet
  facet normal 0 0 -1
    outer loop
      vertex -40 -54.996 -16.25
      vertex -31.962990915244728 -47.65 -16.25
      vertex -30.981495457622366 -49.35 -16.25
    endloop
  endfacet
  facet normal 0 0 -1
    outer loop
      vertex -40 -54.996 -16.25
      vertex -30.981495457622366 -49.35 -16.25
      vertex -29.018504542377634 -49.35 -16.25
    endloop
  endfacet
  facet normal -1 0 0
    outer loop
      vertex -40 -54.996 -16.25
      vertex -40 -54.996 -12.654
      vertex -40 -17.495999999999995 -12.654
    endloop
  endfacet
  facet normal 0 0 -1
    outer loop
      vertex -40 -54.996 -16.25
      vertex -40 -10 -16.25
      vertex -31.962990915244728 -47.65 -16.25
    endloop
  endfacet
  facet normal 0 0 -1
    outer loop
      vertex -40 -54.996 -16.25
      vertex -29.018504542377634 -49.35 -16.25
      vertex -17.504 -54.996 -16.25
    endloop
  endfacet
  facet normal 0 0 -1
    outer loop
      vertex -29.018504542377634 -49.35 -16.25
      vertex -28.037009084755272 -47.65 -16.25
      vertex -17.504 -54.996 -16.25
    endloop
  endfacet
  facet normal 0 0 -1
    outer loop
      vertex -28.037009084755272 -47.65 -16.25
      vertex -29.018504542377634 -45.949999999999996 -16.25
      vertex -17.504 -54.996 -16.25
    endloop
  endfacet
  facet normal 0 0 -1
    outer loop
      vertex -29.018504542377634 -45.949999999999996 -16.25
      vertex -40 -10 -16.25
      vertex -17.504 -54.996 -16.25
    endloop
  endfacet
  facet normal 0 0 -1
    outer loop
      vertex -31.962990915244728 -47.65 -16.25
      vertex -40 -10 -16.25
      vertex -30.981495457622366 -45.949999999999996 -16.25
    endloop
  endfacet
  facet normal 0 0 -1
    outer loop
      vertex -30.981495457622366 -45.949999999999996 -16.25
      vertex -40 -10 -16.25
      vertex -29.018504542377634 -45.949999999999996 -16.25
    endloop
  endfacet
  facet normal -1 0 0
    outer loop
      vertex -40 -54.996 -16.25
      vertex -40 -17.495999999999995 -12.654
      vertex -40 -10 -16.25
    endloop
  endfacet
  facet normal 0 0 -1
    outer loop
      vertex -17.504 -54.996 -16.25
      vertex -40 -10 -16.25
      vertex -17.504 -17.495999999999995 -16.25
    endloop
  endfacet
  facet normal 0 0 1
    outer loop
      vertex -40 -54.996 16.25
      vertex -32.3866001334061 -49.38396649426279 16.25
      vertex -32.95 -47.65 16.25
    endloop
  endfacet
  facet normal 0 0 1
    outer loop
      vertex -40 -54.996 16.25
      vertex -30.911600133406093 -50.455616723070705 16.25
      vertex -32.3866001334061 -49.38396649426279 16.25
    endloop
  endfacet
  facet normal 0 0 1
    outer loop
      vertex -40 -54.996 16.25
      vertex -29.088399866593907 -50.455616723070705 16.25
      vertex -30.911600133406093 -50.455616723070705 16.25
    endloop
  endfacet
  facet normal -1 0 0
    outer loop
      vertex -40 -54.996 12.654
      vertex -40 -54.996 16.25
      vertex -40 -17.495999999999995 12.654
    endloop
  endfacet
  facet normal 0 0 1
    outer loop
      vertex -40 -54.996 16.25
      vertex -32.95 -47.65 16.25
      vertex -40 -10 16.25
    endloop
  endfacet
  facet normal 0 0 1
    outer loop
      vertex -40 -54.996 16.25
      vertex -17.504 -54.996 16.25
      vertex -29.088399866593907 -50.455616723070705 16.25
    endloop
  endfacet
  facet normal 0 0 1
    outer loop
      vertex -29.088399866593907 -50.455616723070705 16.25
      vertex -17.504 -54.996 16.25
      vertex -27.613399866593905 -49.38396649426279 16.25
    endloop
  endfacet
  facet normal 0 0 1
    outer loop
      vertex -27.613399866593905 -49.38396649426279 16.25
      vertex -17.504 -54.996 16.25
      vertex -27.05 -47.65 16.25
    endloop
  endfacet
  facet normal 0 0 1
    outer loop
      vertex -27.05 -47.65 16.25
      vertex -17.504 -17.495999999999995 16.25
      vertex -27.613399866593905 -45.916033505737204 16.25
    endloop
  endfacet
  facet normal 0 0 1
    outer loop
      vertex -27.05 -47.65 16.25
      vertex -17.504 -54.996 16.25
      vertex -17.504 -17.495999999999995 16.25
    endloop
  endfacet
  facet normal 0 0 1
    outer loop
      vertex -32.95 -47.65 16.25
      vertex -32.3866001334061 -45.916033505737204 16.25
      vertex -40 -10 16.25
    endloop
  endfacet
  facet normal 0 0 1
    outer loop
      vertex -32.3866001334061 -45.916033505737204 16.25
      vertex -30.911600133406093 -44.84438327692929 16.25
      vertex -40 -10 16.25
    endloop
  endfacet
  facet normal 0 0 1
    outer loop
      vertex -30.911600133406093 -44.84438327692929 16.25
      vertex -29.088399866593907 -44.84438327692929 16.25
      vertex -40 -10 16.25
    endloop
  endfacet
  facet normal -1 0 0
    outer loop
      vertex -40 -54.996 16.25
      vertex -40 -10 16.25
      vertex -40 -17.495999999999995 12.654
    endloop
  endfacet
  facet normal 0 0 1
    outer loop
      vertex -27.613399866593905 -45.916033505737204 16.25
      vertex -17.504 -17.495999999999995 16.25
      vertex -29.088399866593907 -44.84438327692929 16.25
    endloop
  endfacet
  facet normal 0 0 1
    outer loop
      vertex -29.088399866593907 -44.84438327692929 16.25
      vertex -17.504 -17.495999999999995 16.25
      vertex -40 -10 16.25
    endloop
  endfacet
  facet normal 0 0 -1
    outer loop
      vertex -40 -10 -16.25
      vertex -17.494800831866897 -17.494800831866897 -16.25
      vertex -17.504 -17.495999999999995 -16.25
    endloop
  endfacet
  facet normal 0 0 -1
    outer loop
      vertex -40 -10 -16.25
      vertex -17.5 -10 -16.25
      vertex -17.494800831866897 -17.494800831866897 -16.25
    endloop
  endfacet
  facet normal -1 0 0
    outer loop
      vertex -40 -17.495999999999995 -12.654
      vertex -40 -17.495999999999995 12.654
      vertex -40 -10 -16.25
    endloop
  endfacet
  facet normal 0 1 0
    outer loop
      vertex -40 -10 -16.25
      vertex -40 -10 16.25
      vertex -17.5 -10 -16.25
    endloop
  endfacet
  facet normal 0 0 -1
    outer loop
      vertex -17.494800831866897 -17.494800831866897 -16.25
      vertex -17.495999999999995 -17.495999999999995 -16.25
      vertex -17.5 -17.495999999999995 -16.25
    endloop
  endfacet
  facet normal 0 0 -1
    outer loop
      vertex -17.504 -17.495999999999995 -16.25
      vertex -17.494800831866897 -17.494800831866897 -16.25
      vertex -17.5 -17.495999999999995 -16.25
    endloop
  endfacet
  facet normal 0 0 -1
    outer loop
      vertex -17.5 -10 -16.25
      vertex -10 -10 -16.25
      vertex -17.494800831866897 -17.494800831866897 -16.25
    endloop
  endfacet
  facet normal -1 0 0
    outer loop
      vertex -40 -10 -16.25
      vertex -40 -17.495999999999995 12.654
      vertex -40 -10 16.25
    endloop
  endfacet
  facet normal 0 1 0
    outer loop
      vertex -40 -10 16.25
      vertex -17.5 -10 16.25
      vertex -17.5 -10 -16.25
    endloop
  endfacet
  facet normal 0 0 1
    outer loop
      vertex -40 -10 16.25
      vertex -17.504 -17.495999999999995 16.25
      vertex -17.5 -17.495999999999995 16.25
    endloop
  endfacet
  facet normal 0 0 1
    outer loop
      vertex -40 -10 16.25
      vertex -17.5 -17.495999999999995 16.25
      vertex -17.5 -10 16.25
    endloop
  endfacet
  facet normal 0 0 -1
    outer loop
      vertex 17.504 -54.996 -16.25
      vertex 28.037009084755272 -47.65 -16.25
      vertex 29.018504542377634 -49.35 -16.25
    endloop
  endfacet
  facet normal 0 0 -1
    outer loop
      vertex 17.504 -54.996 -16.25
      vertex 29.018504542377634 -49.35 -16.25
      vertex 40 -54.996 -16.25
    endloop
  endfacet
  facet normal 0 0 -1
    outer loop
      vertex 17.504 -54.996 -16.25
      vertex 17.504 -17.495999999999995 -16.25
      vertex 28.037009084755272 -47.65 -16.25
    endloop
  endfacet
  facet normal 0 0 -1
    outer loop
      vertex 28.037009084755272 -47.65 -16.25
      vertex 17.504 -17.495999999999995 -16.25
      vertex 29.018504542377634 -45.949999999999996 -16.25
    endloop
  endfacet
  facet normal 0 0 -1
    outer loop
      vertex 29.018504542377634 -49.35 -16.25
      vertex 30.981495457622366 -49.35 -16.25
      vertex 40 -54.996 -16.25
    endloop
  endfacet
  facet normal 0 0 -1
    outer loop
      vertex 40 -54.996 -16.25
      vertex 30.981495457622366 -49.35 -16.25
      vertex 31.962990915244728 -47.65 -16.25
    endloop
  endfacet
  facet normal 1 0 0
    outer loop
      vertex 40 -54.996 -16.25
      vertex 40 -17.495999999999995 -12.654
      vertex 40 -54.996 -12.654
    endloop
  endfacet
  facet normal 0 0 -1
    outer loop
      vertex 40 -54.996 -16.25
      vertex 31.962990915244728 -47.65 -16.25
      vertex 40 -10 -16.25
    endloop
  endfacet
  facet normal 0 0 -1
    outer loop
      vertex 29.018504542377634 -45.949999999999996 -16.25
      vertex 17.504 -17.495999999999995 -16.25
      vertex 40 -10 -16.25
    endloop
  endfacet
  facet normal 0 0 -1
    outer loop
      vertex 29.018504542377634 -45.949999999999996 -16.25
      vertex 40 -10 -16.25
      vertex 30.981495457622366 -45.949999999999996 -16.25
    endloop
  endfacet
  facet normal 0 0 -1
    outer loop
      vertex 31.962990915244728 -47.65 -16.25
      vertex 30.981495457622366 -45.949999999999996 -16.25
      vertex 40 -10 -16.25
    endloop
  endfacet
  facet normal 1 0 0
    outer loop
      vertex 40 -54.996 -16.25
      vertex 40 -10 -16.25
      vertex 40 -17.495999999999995 -12.654
    endloop
  endfacet
  facet normal 0 0 1
    outer loop
      vertex 17.504 -54.996 16.25
      vertex 29.088399866593907 -50.455616723070705 16.25
      vertex 27.613399866593905 -49.38396649426279 16.25
    endloop
  endfacet
  facet normal 0 0 1
    outer loop
      vertex 17.504 -54.996 16.25
      vertex 27.613399866593905 -49.38396649426279 16.25
      vertex 27.05 -47.65 16.25
    endloop
  endfacet
  facet normal 0 0 1
    outer loop
      vertex 17.504 -54.996 16.25
      vertex 27.05 -47.65 16.25
      vertex 27.613399866593905 -45.916033505737204 16.25
    endloop
  endfacet
  facet normal 0 0 1
    outer loop
      vertex 17.504 -54.996 16.25
      vertex 40 -54.996 16.25
      vertex 29.088399866593907 -50.455616723070705 16.25
    endloop
  endfacet
  facet normal 0 0 1
    outer loop
      vertex 17.504 -54.996 16.25
      vertex 27.613399866593905 -45.916033505737204 16.25
      vertex 17.504 -17.495999999999995 16.25
    endloop
  endfacet
  facet normal 0 0 1
    outer loop
      vertex 29.088399866593907 -50.455616723070705 16.25
      vertex 40 -54.996 16.25
      vertex 30.911600133406093 -50.455616723070705 16.25
    endloop
  endfacet
  facet normal 0 0 1
    outer loop
      vertex 30.911600133406093 -50.455616723070705 16.25
      vertex 40 -54.996 16.25
      vertex 32.3866001334061 -49.38396649426279 16.25
    endloop
  endfacet
  facet normal 0 0 1
    outer loop
      vertex 32.3866001334061 -49.38396649426279 16.25
      vertex 40 -54.996 16.25
      vertex 32.95 -47.65 16.25
    endloop
  endfacet
  facet normal 1 0 0
    outer loop
      vertex 40 -54.996 12.654
      vertex 40 -17.495999999999995 12.654
      vertex 40 -54.996 16.25
    endloop
  endfacet
  facet normal 0 0 1
    outer loop
      vertex 40 -54.996 16.25
      vertex 40 -10 16.25
      vertex 32.95 -47.65 16.25
    endloop
  endfacet
  facet normal 0 0 1
    outer loop
      vertex 27.613399866593905 -45.916033505737204 16.25
      vertex 29.088399866593907 -44.84438327692929 16.25
      vertex 17.504 -17.495999999999995 16.25
    endloop
  endfacet
  facet normal 0 0 1
    outer loop
      vertex 29.088399866593907 -44.84438327692929 16.25
      vertex 40 -10 16.25
      vertex 17.504 -17.495999999999995 16.25
    endloop
  endfacet
  facet normal 0 0 1
    outer loop
      vertex 29.088399866593907 -44.84438327692929 16.25
      vertex 30.911600133406093 -44.84438327692929 16.25
      vertex 40 -10 16.25
    endloop
  endfacet
  facet normal 0 0 1
    outer loop
      vertex 32.3866001334061 -45.916033505737204 16.25
      vertex 40 -10 16.25
      vertex 30.911600133406093 -44.84438327692929 16.25
    endloop
  endfacet
  facet normal 0 0 1
    outer loop
      vertex 32.95 -47.65 16.25
      vertex 40 -10 16.25
      vertex 32.3866001334061 -45.916033505737204 16.25
    endloop
  endfacet
  facet normal 1 0 0
    outer loop
      vertex 40 -54.996 16.25
      vertex 40 -17.495999999999995 12.654
      vertex 40 -10 16.25
    endloop
  endfacet
  facet normal 0 0 -1
    outer loop
      vertex 17.504 -17.495999999999995 -16.25
      vertex 17.5 -17.495999999999995 -16.25
      vertex -17.494800831866897 -17.494800831866897 -16.25
    endloop
  endfacet
  facet normal 0 0 -1
    outer loop
      vertex 17.504 -17.495999999999995 -16.25
      vertex -17.494800831866897 -17.494800831866897 -16.25
      vertex 40 -10 -16.25
    endloop
  endfacet
  facet normal 0 0 -1
    outer loop
      vertex 40 -10 -16.25
      vertex -17.494800831866897 -17.494800831866897 -16.25
      vertex 17.5 -10 -16.25
    endloop
  endfacet
  facet normal 0 1 0
    outer loop
      vertex 40 -10 -16.25
      vertex 17.5 -10 -16.25
      vertex 40 -10 16.25
    endloop
  endfacet
  facet normal 1 0 0
    outer loop
      vertex 40 -17.495999999999995 -12.654
      vertex 40 -10 -16.25
      vertex 40 -10 16.25
    endloop
  endfacet
  facet normal 0 0 1
    outer loop
      vertex 17.5 -16.16762963504717 16.25
      vertex 12.655906442376029 -17.495477411977955 16.25
      vertex 17.5 -17.495999999999995 16.25
    endloop
  endfacet
  facet normal 0 1 0
    outer loop
      vertex 40 -10 16.25
      vertex 17.5 -10 -16.25
      vertex 17.5 -10 16.25
    endloop
  endfacet
  facet normal 1 0 0
    outer loop
      vertex 40 -17.495999999999995 -12.654
      vertex 40 -10 16.25
      vertex 40 -17.495999999999995 12.654
    endloop
  endfacet
  facet normal 0 0 1
    outer loop
      vertex 17.504 -17.495999999999995 16.25
      vertex 40 -10 16.25
      vertex 17.5 -17.495999999999995 16.25
    endloop
  endfacet
  facet normal 0 0 1
    outer loop
      vertex 40 -10 16.25
      vertex 17.5 -16.16762963504717 16.25
      vertex 17.5 -17.495999999999995 16.25
    endloop
  endfacet
  facet normal 0 0 1
    outer loop
      vertex 40 -10 16.25
      vertex 17.5 -10 16.25
      vertex 17.5 -16.16762963504717 16.25
    endloop
  endfacet
  facet normal 0 0 1
    outer loop
      vertex -40 -54.996 -12.654
      vertex -30.981495457622366 -49.35 -12.654
      vertex -31.962990915244728 -47.65 -12.654
    endloop
  endfacet
  facet normal 0 0 1
    outer loop
      vertex -40 -54.996 -12.654
      vertex -29.018504542377634 -49.35 -12.654
      vertex -30.981495457622366 -49.35 -12.654
    endloop
  endfacet
  facet normal 0 0 1
    outer loop
      vertex -40 -54.996 -12.654
      vertex -31.962990915244728 -47.65 -12.654
      vertex -40 -17.495999999999995 -12.654
    endloop
  endfacet
  facet normal 0 0 1
    outer loop
      vertex -31.962990915244728 -47.65 -12.654
      vertex -30.981495457622366 -45.949999999999996 -12.654
      vertex -40 -17.495999999999995 -12.654
    endloop
  endfacet
  facet normal 0 0 1
    outer loop
      vertex -40 -54.996 -12.654
      vertex -17.504 -54.996 -12.654
      vertex -29.018504542377634 -49.35 -12.654
    endloop
  endfacet
  facet normal 0 0 1
    outer loop
      vertex -29.018504542377634 -49.35 -12.654
      vertex -17.504 -54.996 -12.654
      vertex -28.037009084755272 -47.65 -12.654
    endloop
  endfacet
  facet normal 0 0 1
    outer loop
      vertex -28.037009084755272 -47.65 -12.654
      vertex -17.504 -54.996 -12.654
      vertex -29.018504542377634 -45.949999999999996 -12.654
    endloop
  endfacet
  facet normal 0 0 1
    outer loop
      vertex -29.018504542377634 -45.949999999999996 -12.654
      vertex -17.504 -54.996 -12.654
      vertex -17.504 -17.495999999999995 -12.654
    endloop
  endfacet
  facet normal 0 0 1
    outer loop
      vertex -30.981495457622366 -45.949999999999996 -12.654
      vertex -29.018504542377634 -45.949999999999996 -12.654
      vertex -17.504 -17.495999999999995 -12.654
    endloop
  endfacet
  facet normal 0 0 1
    outer loop
      vertex -30.981495457622366 -45.949999999999996 -12.654
      vertex -17.504 -17.495999999999995 -12.654
      vertex -40 -17.495999999999995 -12.654
    endloop
  endfacet
  facet normal 0 0 -1
    outer loop
      vertex -40 -54.996 12.654
      vertex -31.962990915244728 -47.65 12.654
      vertex -30.981495457622366 -49.35 12.654
    endloop
  endfacet
  facet normal 0 0 -1
    outer loop
      vertex -40 -54.996 12.654
      vertex -30.981495457622366 -49.35 12.654
      vertex -29.018504542377634 -49.35 12.654
    endloop
  endfacet
  facet normal 0 0 -1
    outer loop
      vertex -40 -54.996 12.654
      vertex -40 -17.495999999999995 12.654
      vertex -31.962990915244728 -47.65 12.654
    endloop
  endfacet
  facet normal 0 0 -1
    outer loop
      vertex -31.962990915244728 -47.65 12.654
      vertex -40 -17.495999999999995 12.654
      vertex -30.981495457622366 -45.949999999999996 12.654
    endloop
  endfacet
  facet normal 0 0 -1
    outer loop
      vertex -40 -54.996 12.654
      vertex -29.018504542377634 -49.35 12.654
      vertex -17.504 -54.996 12.654
    endloop
  endfacet
  facet normal 0 0 -1
    outer loop
      vertex -29.018504542377634 -49.35 12.654
      vertex -28.037009084755272 -47.65 12.654
      vertex -17.504 -54.996 12.654
    endloop
  endfacet
  facet normal 0 0 -1
    outer loop
      vertex -28.037009084755272 -47.65 12.654
      vertex -29.018504542377634 -45.949999999999996 12.654
      vertex -17.504 -54.996 12.654
    endloop
  endfacet
  facet normal 0 0 -1
    outer loop
      vertex -29.018504542377634 -45.949999999999996 12.654
      vertex -40 -17.495999999999995 12.654
      vertex -17.504 -54.996 12.654
    endloop
  endfacet
  facet normal 0 0 -1
    outer loop
      vertex -30.981495457622366 -45.949999999999996 12.654
      vertex -40 -17.495999999999995 12.654
      vertex -29.018504542377634 -45.949999999999996 12.654
    endloop
  endfacet
  facet normal 0 0 -1
    outer loop
      vertex -17.504 -54.996 12.654
      vertex -40 -17.495999999999995 12.654
      vertex -17.504 -17.495999999999995 12.654
    endloop
  endfacet
  facet normal 0 -1 0
    outer loop
      vertex -40 -17.495999999999995 -12.654
      vertex -17.504 -17.495999999999995 -12.654
      vertex -40 -17.495999999999995 12.654
    endloop
  endfacet
  facet normal 0 -1 0
    outer loop
      vertex -17.504 -17.495999999999995 -12.654
      vertex -17.5 -17.495999999999995 -12.654
      vertex -40 -17.495999999999995 12.654
    endloop
  endfacet
  facet normal 0 -1 0
    outer loop
      vertex -40 -17.495999999999995 12.654
      vertex -17.5 -17.495999999999995 -12.654
      vertex -17.504 -17.495999999999995 12.654
    endloop
  endfacet
  facet normal 0 -1 0
    outer loop
      vertex -17.504 -17.495999999999995 12.654
      vertex -17.5 -17.495999999999995 -12.654
      vertex -17.5 -17.495999999999995 12.654
    endloop
  endfacet
  facet normal 0 0 1
    outer loop
      vertex 17.504 -54.996 -12.654
      vertex 29.018504542377634 -49.35 -12.654
      vertex 28.037009084755272 -47.65 -12.654
    endloop
  endfacet
  facet normal 0 0 1
    outer loop
      vertex 17.504 -54.996 -12.654
      vertex 28.037009084755272 -47.65 -12.654
      vertex 29.018504542377634 -45.949999999999996 -12.654
    endloop
  endfacet
  facet normal 0 0 1
    outer loop
      vertex 17.504 -54.996 -12.654
      vertex 40 -54.996 -12.654
      vertex 29.018504542377634 -49.35 -12.654
    endloop
  endfacet
  facet normal 0 0 1
    outer loop
      vertex 17.504 -54.996 -12.654
      vertex 29.018504542377634 -45.949999999999996 -12.654
      vertex 40 -17.495999999999995 -12.654
    endloop
  endfacet
  facet normal 0 0 1
    outer loop
      vertex 29.018504542377634 -49.35 -12.654
      vertex 40 -54.996 -12.654
      vertex 30.981495457622366 -49.35 -12.654
    endloop
  endfacet
  facet normal 0 0 1
    outer loop
      vertex 40 -54.996 -12.654
      vertex 31.962990915244728 -47.65 -12.654
      vertex 30.981495457622366 -49.35 -12.654
    endloop
  endfacet
  facet normal 0 0 1
    outer loop
      vertex 31.962990915244728 -47.65 -12.654
      vertex 40 -17.495999999999995 -12.654
      vertex 30.981495457622366 -45.949999999999996 -12.654
    endloop
  endfacet
  facet normal 0 0 1
    outer loop
      vertex 40 -54.996 -12.654
      vertex 40 -17.495999999999995 -12.654
      vertex 31.962990915244728 -47.65 -12.654
    endloop
  endfacet
  facet normal 0 0 1
    outer loop
      vertex 17.504 -54.996 -12.654
      vertex 40 -17.495999999999995 -12.654
      vertex 17.504 -17.495999999999995 -12.654
    endloop
  endfacet
  facet normal 0 0 1
    outer loop
      vertex 29.018504542377634 -45.949999999999996 -12.654
      vertex 30.981495457622366 -45.949999999999996 -12.654
      vertex 40 -17.495999999999995 -12.654
    endloop
  endfacet
  facet normal 0 0 -1
    outer loop
      vertex 17.504 -54.996 12.654
      vertex 28.037009084755272 -47.65 12.654
      vertex 29.018504542377634 -49.35 12.654
    endloop
  endfacet
  facet normal 0 0 -1
    outer loop
      vertex 17.504 -54.996 12.654
      vertex 29.018504542377634 -45.949999999999996 12.654
      vertex 28.037009084755272 -47.65 12.654
    endloop
  endfacet
  facet normal 0 0 -1
    outer loop
      vertex 17.504 -54.996 12.654
      vertex 29.018504542377634 -49.35 12.654
      vertex 40 -54.996 12.654
    endloop
  endfacet
  facet normal 0 0 -1
    outer loop
      vertex 17.504 -54.996 12.654
      vertex 17.504 -17.495999999999995 12.654
      vertex 29.018504542377634 -45.949999999999996 12.654
    endloop
  endfacet
  facet normal 0 0 -1
    outer loop
      vertex 29.018504542377634 -49.35 12.654
      vertex 30.981495457622366 -49.35 12.654
      vertex 40 -54.996 12.654
    endloop
  endfacet
  facet normal 0 0 -1
    outer loop
      vertex 40 -54.996 12.654
      vertex 30.981495457622366 -49.35 12.654
      vertex 31.962990915244728 -47.65 12.654
    endloop
  endfacet
  facet normal 0 0 -1
    outer loop
      vertex 31.962990915244728 -47.65 12.654
      vertex 30.981495457622366 -45.949999999999996 12.654
      vertex 40 -17.495999999999995 12.654
    endloop
  endfacet
  facet normal 0 0 -1
    outer loop
      vertex 40 -54.996 12.654
      vertex 31.962990915244728 -47.65 12.654
      vertex 40 -17.495999999999995 12.654
    endloop
  endfacet
  facet normal 0 0 -1
    outer loop
      vertex 29.018504542377634 -45.949999999999996 12.654
      vertex 17.504 -17.495999999999995 12.654
      vertex 30.981495457622366 -45.949999999999996 12.654
    endloop
  endfacet
  facet normal 0 0 -1
    outer loop
      vertex 30.981495457622366 -45.949999999999996 12.654
      vertex 17.504 -17.495999999999995 12.654
      vertex 40 -17.495999999999995 12.654
    endloop
  endfacet
  facet normal 0 -1 0
    outer loop
      vertex 17.504 -17.495999999999995 -12.654
      vertex 17.5 -17.495999999999995 12.654
      vertex 17.5 -17.495999999999995 -12.654
    endloop
  endfacet
  facet normal 0 -1 0
    outer loop
      vertex 17.504 -17.495999999999995 -12.654
      vertex 40 -17.495999999999995 -12.654
      vertex 17.5 -17.495999999999995 12.654
    endloop
  endfacet
  facet normal 0 -1 0
    outer loop
      vertex 40 -17.495999999999995 -12.654
      vertex 17.504 -17.495999999999995 12.654
      vertex 17.5 -17.495999999999995 12.654
    endloop
  endfacet
  facet normal 0 -1 0
    outer loop
      vertex 40 -17.495999999999995 -12.654
      vertex 40 -17.495999999999995 12.654
      vertex 17.504 -17.495999999999995 12.654
    endloop
  endfacet
  facet normal 1 0 0
    outer loop
      vertex -17.504 -54.996 -16.25
      vertex -17.504 -17.495999999999995 -12.654
      vertex -17.504 -54.996 -12.654
    endloop
  endfacet
  facet normal 1 0 0
    outer loop
      vertex -17.504 -54.996 -16.25
      vertex -17.504 -17.495999999999995 -16.25
      vertex -17.504 -17.495999999999995 -12.654
    endloop
  endfacet
  facet normal 1 0 0
    outer loop
      vertex -17.504 -54.996 12.654
      vertex -17.504 -17.495999999999995 16.25
      vertex -17.504 -54.996 16.25
    endloop
  endfacet
  facet normal 1 0 0
    outer loop
      vertex -17.504 -54.996 12.654
      vertex -17.504 -17.495999999999995 12.654
      vertex -17.504 -17.495999999999995 16.25
    endloop
  endfacet
  facet normal 0 -1 0
    outer loop
      vertex -17.504 -17.495999999999995 -16.25
      vertex -17.5 -17.495999999999995 -16.25
      vertex -17.504 -17.495999999999995 -12.654
    endloop
  endfacet
  facet normal 0 -1 0
    outer loop
      vertex -17.504 -17.495999999999995 -12.654
      vertex -17.5 -17.495999999999995 -16.25
      vertex -17.5 -17.495999999999995 -12.654
    endloop
  endfacet
  facet normal 0 -1 0
    outer loop
      vertex -17.504 -17.495999999999995 12.654
      vertex -17.5 -17.495999999999995 12.654
      vertex -17.504 -17.495999999999995 16.25
    endloop
  endfacet
  facet normal 0 -1 0
    outer loop
      vertex -17.504 -17.495999999999995 16.25
      vertex -17.5 -17.495999999999995 12.654
      vertex -17.5 -17.495999999999995 16.25
    endloop
  endfacet
  facet normal -1 0 0
    outer loop
      vertex 17.504 -54.996 -16.25
      vertex 17.504 -54.996 -12.654
      vertex 17.504 -17.495999999999995 -16.25
    endloop
  endfacet
  facet normal -1 0 0
    outer loop
      vertex 17.504 -54.996 -12.654
      vertex 17.504 -17.495999999999995 -12.654
      vertex 17.504 -17.495999999999995 -16.25
    endloop
  endfacet
  facet normal -1 0 0
    outer loop
      vertex 17.504 -54.996 12.654
      vertex 17.504 -54.996 16.25
      vertex 17.504 -17.495999999999995 16.25
    endloop
  endfacet
  facet normal -1 0 0
    outer loop
      vertex 17.504 -54.996 12.654
      vertex 17.504 -17.495999999999995 16.25
      vertex 17.504 -17.495999999999995 12.654
    endloop
  endfacet
  facet normal 0 -1 0
    outer loop
      vertex 17.504 -17.495999999999995 -16.25
      vertex 17.5 -17.495999999999995 -12.654
      vertex 17.5 -17.495999999999995 -16.25
    endloop
  endfacet
  facet normal 0 -1 0
    outer loop
      vertex 17.504 -17.495999999999995 -16.25
      vertex 17.504 -17.495999999999995 -12.654
      vertex 17.5 -17.495999999999995 -12.654
    endloop
  endfacet
  facet normal 0 -1 0
    outer loop
      vertex 17.504 -17.495999999999995 12.654
      vertex 17.5 -17.495999999999995 16.25
      vertex 17.5 -17.495999999999995 12.654
    endloop
  endfacet
  facet normal 0 -1 0
    outer loop
      vertex 17.504 -17.495999999999995 12.654
      vertex 17.504 -17.495999999999995 16.25
      vertex 17.5 -17.495999999999995 16.25
    endloop
  endfacet
  facet normal 0 -1 0
    outer loop
      vertex -40 -54.996 -16.25
      vertex -17.504 -54.996 -12.654
      vertex -40 -54.996 -12.654
    endloop
  endfacet
  facet normal 0 -1 0
    outer loop
      vertex -40 -54.996 -16.25
      vertex -17.504 -54.996 -16.25
      vertex -17.504 -54.996 -12.654
    endloop
  endfacet
  facet normal 0 -1 0
    outer loop
      vertex -40 -54.996 12.654
      vertex -17.504 -54.996 12.654
      vertex -40 -54.996 16.25
    endloop
  endfacet
  facet normal 0 -1 0
    outer loop
      vertex -40 -54.996 16.25
      vertex -17.504 -54.996 12.654
      vertex -17.504 -54.996 16.25
    endloop
  endfacet
  facet normal 0 -1 0
    outer loop
      vertex 17.504 -54.996 -16.25
      vertex 40 -54.996 -16.25
      vertex 17.504 -54.996 -12.654
    endloop
  endfacet
  facet normal 0 -1 0
    outer loop
      vertex 17.504 -54.996 -12.654
      vertex 40 -54.996 -16.25
      vertex 40 -54.996 -12.654
    endloop
  endfacet
  facet normal 0 -1 0
    outer loop
      vertex 17.504 -54.996 12.654
      vertex 40 -54.996 16.25
      vertex 17.504 -54.996 16.25
    endloop
  endfacet
  facet normal 0 -1 0
    outer loop
      vertex 17.504 -54.996 12.654
      vertex 40 -54.996 12.654
      vertex 40 -54.996 16.25
    endloop
  endfacet
  facet normal 1 0 0
    outer loop
      vertex -12.654 -10.047672178770199 -6.878981364692556
      vertex -12.654 -17.495999999999995 -6.878981364692556
      vertex -12.654 -17.495999999999995 -6.879
    endloop
  endfacet
  facet normal 1 0 0
    outer loop
      vertex -12.654 -10.047672178770199 -6.878981364692556
      vertex -12.654 -17.495999999999995 -6.879
      vertex -12.654 -10 -6.879
    endloop
  endfacet
  facet normal 1 0 0
    outer loop
      vertex -12.654 -10.047672178770199 -6.878981364692556
      vertex -12.654 -10 -6.879
      vertex -12.654 -10 -6.840330040427734
    endloop
  endfacet
  facet normal -1 0 0
    outer loop
      vertex 12.654 -10 -6.879
      vertex 12.654 -17.495999999999995 -6.879
      vertex 12.654 -17.495999999999995 -6.878981364692556
    endloop
  endfacet
  facet normal -1 0 0
    outer loop
      vertex 12.654 -10 -6.879
      vertex 12.654 -17.495999999999995 -6.878981364692556
      vertex 12.654 -17.44324047402796 -6.840330040427734
    endloop
  endfacet
  facet normal -1 0 0
    outer loop
      vertex 12.654 -10 -6.879
      vertex 12.654 -17.44324047402796 -6.840330040427734
      vertex 12.654 -10 -6.840330040427734
    endloop
  endfacet
  facet normal -1 0 0
    outer loop
      vertex 12.654 -17.495999999999995 16.25
      vertex 12.654 -15.204538104799303 13.753265871817195
      vertex 12.654 -17.495999999999995 16.24564926931106
    endloop
  endfacet
  facet normal -1 0 0
    outer loop
      vertex 12.654 -17.495999999999995 16.25
      vertex 12.654 -10 16.25
      vertex 12.654 -15.204538104799303 13.753265871817195
    endloop
  endfacet
  facet normal -1 0 0
    outer loop
      vertex 12.654 -10 16.25
      vertex 12.654 -11.94671652565843 10.210919678807214
      vertex 12.654 -15.204538104799303 13.753265871817195
    endloop
  endfacet
  facet normal -1 0 0
    outer loop
      vertex 12.654 -10 16.25
      vertex 12.654 -10 10.210919678807214
      vertex 12.654 -11.94671652565843 10.210919678807214
    endloop
  endfacet
endsolid OpenSCAD_Model
